<svg width="325" height="290" viewBox="0 0 325 290" fill="none" xmlns="http://www.w3.org/2000/svg">
<path d="M98 164.836C111.63 155.909 126.731 150.518 141.117 143.062C152.054 137.393 161.956 128.252 169.159 118.261C174.354 111.056 177.264 102.283 180.991 94.2717C183.328 89.2506 185.962 83.6712 185.962 78.0084C185.962 71.8395 165.998 77.7388 163.539 82.6551C162.876 83.9827 163.4 85.4596 162.783 86.7614C161.516 89.4358 160.244 94.1395 160.244 97.0003C160.244 98.1301 159.099 99.339 158.731 100.404C156.916 105.646 155.182 110.907 153.733 116.262C151.878 123.119 149.027 129.626 147.087 136.47C144.065 147.132 140.618 157.876 138.577 168.78C136.471 180.032 137.918 193.735 142.846 204.117C143.992 206.531 145.775 211.72 149.221 211.411C152.478 211.118 154.702 209.609 157.11 207.412C164.28 200.87 170.568 193.162 176.696 185.665C187.394 172.577 195.976 159.862 199.254 143.089C201.819 129.964 201.781 116.687 201.334 103.376C201.181 98.8094 200.978 94.3789 200.037 89.8952C199.474 87.2104 199.004 83.1196 196.85 81.0882C194.748 79.107 190.694 79.3465 188.097 79.3862C180.113 79.5081 172.65 82.9207 165.593 86.3832C152.592 92.7614 140.28 102.853 133.606 115.884C128.11 126.616 126.02 139.804 125.934 151.761C125.838 165.101 127.247 177.93 131.013 190.771C133.907 200.64 137.914 211.821 147.033 217.624C150.515 219.84 153.348 219.622 157.326 219.002C163.658 218.016 167.017 214.618 171.644 210.303C189.397 193.747 204.482 173.407 210.492 149.491C214.558 133.313 216.533 114.21 213.14 97.6757C211.336 88.8877 207.278 81.1295 197.174 83.3304C192.24 84.4052 188.604 88.7427 185.152 92.0835C178.145 98.8647 171.629 106.067 165.296 113.48C153.315 127.501 140.064 143.966 135.606 162.297C133.298 171.782 133.659 181.875 135.2 191.446C135.799 195.166 136.706 202.116 142.251 200.28C148.669 198.156 154.892 191.397 159.541 186.935C168.388 178.443 176.081 168.926 182.396 158.406C192.622 141.372 200.559 123.331 200.983 103.349C201.096 98.0063 200.991 92.6008 200.226 87.3017C199.86 84.7636 199.312 83.1923 196.606 82.601C184.775 80.0154 175.906 94.1817 170.699 102.457C162.596 115.333 156.719 130.947 156.975 146.412C157.075 152.459 158.967 162 166.7 160.027C173.149 158.382 178.045 152.858 182.802 148.573C190.747 141.415 198.196 134.13 204.603 125.529C209.637 118.77 214.469 111.669 216.139 103.268C216.566 101.117 218.272 92.8043 215.463 91.1379C213.475 89.9586 209.916 94.2923 208.979 95.2983C202.381 102.385 196.708 110.492 191.041 118.315C186.121 125.108 181.36 132.082 177.317 139.442C174.597 144.394 171.511 150.002 170.996 155.759C170.13 165.437 177.801 155.514 179.803 152.895C185.437 145.526 190.998 138.058 195.688 130.04C200.812 121.28 207.17 111.205 207.656 100.755C207.755 98.6131 207.791 94.8241 205.765 93.3262C204.328 92.264 197.993 98.4184 197.633 98.7022C187.68 106.553 177.961 114.691 168.24 122.827C156.115 132.976 144.321 142.921 134.606 155.489C127.286 164.958 111.817 186.545 128.609 195.391C133.281 197.852 136.963 197.259 141.495 194.634C149.316 190.104 154.404 185.724 161.567 179.424C183.175 160.423 204.448 139.521 220.11 115.182C227.277 104.044 233.282 91.3504 234.59 77.9544C234.896 74.8211 233.779 67.8815 231.078 64.9869C227.741 61.4102 219.549 63.4811 215.895 64.8789C208.026 67.8896 202.003 74.2132 196.444 80.2777C187.036 90.5432 177.692 101.437 170.077 113.128C162.127 125.336 159.283 140.927 161.324 155.219C161.912 159.331 164.7 166.519 170.023 165.538C172.6 165.064 174.566 163.696 176.534 161.972C182.249 156.965 187.243 150.853 191.338 144.466C200.04 130.895 205.799 114.075 203.684 97.8918C202.993 92.601 201.688 90.0059 197.228 87.0586C191.897 83.5358 187.774 83.5495 181.64 84.9784C160.979 89.7914 147.912 110.035 141.387 128.851C135.928 144.596 136.102 163.03 147.384 176.291C156.947 187.529 172.268 171.796 178.29 164.701C186.253 155.318 193.968 143.353 194.688 130.743C195.126 123.09 191.444 117.649 185.53 113.291" stroke="#916F5F" stroke-width="3" stroke-linecap="round"/>
<path d="M78.8086 216V186.703H8.00781V170.785C14.0625 159.522 21.7448 146.664 31.0547 132.211C40.4297 117.758 53.3529 98.7148 69.8242 75.082H95.8008V171.273H115.723V186.703H95.8008V216H78.8086ZM25.3906 170.883V171.273H78.8086V89.7305H78.5156C53.8411 124.952 36.1328 152.003 25.3906 170.883ZM281.934 216V186.703H211.133V170.785C217.188 159.522 224.87 146.664 234.18 132.211C243.555 117.758 256.478 98.7148 272.949 75.082H298.926V171.273H318.848V186.703H298.926V216H281.934ZM228.516 170.883V171.273H281.934V89.7305H281.641C256.966 124.952 239.258 152.003 228.516 170.883Z" fill="black"/>
</svg>
