<svg width="102" height="32" viewBox="0 0 102 32" fill="none" xmlns="http://www.w3.org/2000/svg">
<g clip-path="url(#clip0_2_1583)">
<path d="M33.96 22.7921L35.2707 16H37.773C38.2497 16 38.6072 16 38.8455 16.2383C39.203 16.3575 39.4413 16.5958 39.5604 16.8341C39.7987 17.1916 39.7987 17.5491 39.7987 17.9065C39.7987 18.5023 39.6796 18.979 39.4413 19.4556C39.0838 19.9322 38.7263 20.2897 38.2497 20.4089C38.0114 20.6472 37.6539 20.6472 37.2964 20.6472H35.9857L35.509 22.7921H33.96ZM36.224 19.2173H37.0581C37.2964 19.2173 37.5347 19.2173 37.6539 19.0981C38.0114 18.8598 38.1305 18.5023 38.1305 18.0257C38.1305 17.9065 38.1305 17.6682 38.0114 17.5491C37.8922 17.4299 37.6539 17.4299 37.4156 17.4299H36.5815L36.224 19.2173Z" fill="#FEFEFE"/>
<path d="M39.7983 22.7921L41.1091 16H45.2796L45.0413 17.4299H42.4198L42.1815 18.6215H44.5647L44.3264 20.0514H41.9432L41.7049 21.3621H44.3264L43.9689 22.7921H39.7983Z" fill="#FEFEFE"/>
<path d="M45.3994 19.8131C45.3994 19.2173 45.6377 18.5023 45.9952 17.9065C46.3527 17.3107 46.8293 16.8341 47.4251 16.4766C48.0209 16.1192 48.6167 16 49.3317 16C50.1658 16 50.9999 16.2383 51.4765 16.8341C52.0723 17.3107 52.3106 18.0257 52.3106 18.8598C52.3106 19.5748 52.1915 20.1706 51.834 20.7664C51.4765 21.3621 50.9999 21.8388 50.4041 22.1963C49.8083 22.5537 49.2125 22.7921 48.4975 22.7921C47.5443 22.7921 46.8293 22.5537 46.2335 21.9579C45.7569 21.3621 45.3994 20.6472 45.3994 19.8131ZM47.0676 19.6939C47.0676 20.1706 47.1868 20.528 47.4251 20.8855C47.7826 21.1238 48.1401 21.3621 48.4975 21.3621C49.0933 21.3621 49.57 21.1238 50.0466 20.6472C50.5232 20.1706 50.7616 19.5748 50.7616 18.979C50.7616 18.5023 50.5232 18.1449 50.2849 17.9065C50.0466 17.5491 49.6891 17.4299 49.2125 17.4299C48.7359 17.4299 48.1401 17.6682 47.7826 18.1449C47.306 18.6215 47.0676 19.0981 47.0676 19.6939Z" fill="#FEFEFE"/>
<path d="M52.4292 22.7921L53.7399 16H56.3614C56.8381 16 57.0764 16 57.4339 16.2383C57.6722 16.3575 57.9105 16.5958 58.1488 16.8341C58.268 17.1916 58.3871 17.5491 58.3871 17.9065C58.3871 18.5023 58.268 18.979 57.9105 19.4556C57.6722 19.9322 57.3147 20.2897 56.8381 20.4089C56.4806 20.6472 56.1231 20.6472 55.7656 20.6472H54.5741L54.0974 22.7921H52.4292ZM54.8124 19.2173H55.6465C55.8848 19.2173 56.004 19.2173 56.1231 19.0981C56.4806 18.8598 56.7189 18.5023 56.7189 18.0257C56.7189 17.9065 56.5998 17.6682 56.4806 17.5491C56.3614 17.4299 56.2423 17.4299 56.004 17.4299H55.1699L54.8124 19.2173Z" fill="#FEFEFE"/>
<path d="M58.2686 22.7921L59.5793 16H61.2475L60.2943 21.3621H63.0349L62.6774 22.7921H58.2686Z" fill="#FEFEFE"/>
<path d="M77.5718 22.7921L78.8825 16H80.5507L79.4783 21.3621H82.219L81.9807 22.7921H77.5718Z" fill="#FEFEFE"/>
<path d="M82.8149 22.7921L86.2705 16H88.1771L89.1304 22.7921H87.4621L87.343 21.3621H85.1981L84.6023 22.7921H82.8149ZM85.9131 20.0514H87.2238L86.9855 17.6682C86.5089 18.6215 86.2705 19.0981 85.9131 20.0514Z" fill="#FEFEFE"/>
<path d="M89.9644 22.7921L91.2751 16H92.9433L94.1349 19.2173L94.3732 19.8131L94.4924 20.0514C94.7307 18.6215 94.969 17.4299 95.3265 16H96.9947L95.684 22.7921H94.0158C93.5391 21.4813 92.9433 20.0514 92.4667 18.7407C92.1092 20.1706 91.8709 21.3621 91.6326 22.7921H89.9644Z" fill="#FEFEFE"/>
<path d="M71.7334 22.7921L73.0441 16H75.6656C76.0231 16 76.3806 16 76.7381 16.2383C76.9764 16.3575 77.2147 16.5958 77.453 16.8341C77.5722 17.1916 77.6913 17.5491 77.6913 17.9065C77.6913 18.5023 77.5722 18.979 77.2147 19.4556C76.9764 19.9322 76.6189 20.2897 76.1423 20.4089C75.7848 20.6472 75.4273 20.6472 75.0698 20.6472H73.7591L73.4016 22.7921H71.7334ZM74.1166 19.2173H74.9507C75.189 19.2173 75.3082 19.2173 75.4273 19.0981C75.7848 18.8598 76.0231 18.5023 76.0231 18.0257C76.0231 17.9065 75.904 17.6682 75.7848 17.5491C75.6656 17.4299 75.5465 17.4299 75.3082 17.4299H74.4741L74.1166 19.2173Z" fill="#FEFEFE"/>
<path d="M97.1143 20.528C97.3526 20.7664 97.8293 21.0047 98.1867 21.1238C98.5442 21.243 98.7825 21.243 99.0209 21.243C99.2592 21.243 99.3783 21.243 99.6166 21.1238C99.7358 21.0047 99.855 20.8855 99.855 20.7664C99.855 20.4089 99.3783 20.1706 99.2592 20.1706C99.0209 20.0514 98.7825 19.9322 98.6634 19.8131C98.4251 19.6939 98.1867 19.5748 98.0676 19.3364C97.8293 19.2173 97.7101 19.0981 97.5909 18.8598C97.4718 18.6215 97.3526 18.3832 97.3526 18.0257C97.3526 17.4299 97.5909 16.9533 98.1867 16.5958C98.6634 16.1192 99.14 16 99.855 16C100.808 16 101.404 16.2383 101.881 16.5958L101.523 18.1449C101.285 17.9065 101.047 17.7874 100.57 17.5491C100.332 17.5491 100.093 17.4299 99.855 17.4299C99.6166 17.4299 99.3783 17.5491 99.2592 17.6682C99.14 17.6682 99.0209 17.9065 99.0209 18.0257C99.0209 18.1449 99.0209 18.264 99.14 18.3832C99.2592 18.5023 99.4975 18.5023 99.6166 18.6215C99.855 18.7407 99.9741 18.8598 100.212 18.979C100.451 19.0981 100.689 19.2173 100.808 19.3364C101.047 19.4556 101.166 19.6939 101.285 19.9322C101.404 20.1706 101.523 20.4089 101.523 20.7664C101.523 21.243 101.285 21.7196 100.808 22.1963C100.332 22.5537 99.7358 22.7921 99.0209 22.7921C98.5442 22.7921 98.0676 22.6729 97.5909 22.5537C97.3526 22.4346 96.9952 22.1963 96.7568 22.0771L97.1143 20.528Z" fill="#FEFEFE"/>
<path d="M63.5112 22.7921L64.822 16H69.1117L68.8734 17.4299H66.2519L66.0136 18.6215H68.3967L68.1584 20.0514H65.7752L65.4178 21.3621H68.0393L67.801 22.7921H63.5112Z" fill="#FEFEFE"/>
<path d="M26.4523 16.715C24.4266 12.6636 19.5411 5.63324 10.2467 2.65427C8.1018 1.93931 5.95694 2.77343 4.64619 4.56081C2.14386 8.49305 -1.43091 16.1192 0.594791 25.7711C1.07143 27.9159 2.85881 29.465 5.00367 29.5842C9.77003 29.8225 18.1111 29.1075 25.3798 22.5538C27.0481 21.1239 27.5247 18.7407 26.4523 16.715Z" fill="#FF461E"/>
<path fill-rule="evenodd" clip-rule="evenodd" d="M8.69745 9.20801L7.50586 22.7921L13.1063 20.2898L8.69745 9.20801Z" fill="#E3E3E3"/>
<path fill-rule="evenodd" clip-rule="evenodd" d="M13.1061 20.2898L19.5407 19.5748L8.69727 9.20801L13.1061 20.2898Z" fill="#FEFEFE"/>
</g>
<defs>
<clipPath id="clip0_2_1583">
<rect width="102" height="32" fill="white"/>
</clipPath>
</defs>
</svg>
