<svg width="18" height="18" viewBox="0 0 18 18" fill="none" xmlns="http://www.w3.org/2000/svg">
<path d="M0 5C0 2.23858 2.23858 0 5 0H13C15.7614 0 18 2.23858 18 5V13C18 15.7614 15.7614 18 13 18H5C2.23858 18 0 15.7614 0 13V5Z" fill="#FF0000"/>
<path d="M14.3391 6.17396L14.353 6.2652C14.218 5.78618 13.8535 5.41656 13.3903 5.28203L13.3806 5.2797C12.5096 5.04322 9.0047 5.04322 9.0047 5.04322C9.0047 5.04322 5.50866 5.03856 4.62883 5.2797C4.1568 5.41656 3.79183 5.78618 3.65916 6.25543L3.65683 6.2652C3.33144 7.96481 3.32911 10.007 3.67126 11.8267L3.65683 11.7346C3.79183 12.2136 4.15633 12.5832 4.61952 12.7177L4.6293 12.7201C5.49935 12.957 9.00516 12.957 9.00516 12.957C9.00516 12.957 12.5007 12.957 13.381 12.7201C13.8535 12.5832 14.2185 12.2136 14.3512 11.7443L14.3535 11.7346C14.5015 10.9441 14.5862 10.0345 14.5862 9.10532C14.5862 9.07134 14.5862 9.03689 14.5858 9.00244C14.5862 8.97079 14.5862 8.93308 14.5862 8.89537C14.5862 7.96574 14.5015 7.05612 14.3391 6.17396ZM7.88652 10.6997V7.3047L10.8035 9.00477L7.88652 10.6997Z" fill="white"/>
</svg>
