<svg width="93" height="85" viewBox="0 0 93 85" fill="none" xmlns="http://www.w3.org/2000/svg">
<path d="M38.0667 54.394H38.4804C38.4804 54.6162 38.4038 54.7791 38.2505 54.8825C38.0973 54.9821 37.8464 55.0319 37.4978 55.0319H37.3828C36.9844 55.0319 36.676 55.1181 36.4577 55.2905C36.2431 55.459 36.1359 55.7157 36.1359 56.0605V56.2559C36.2316 56.049 36.3811 55.8843 36.5841 55.7617C36.7871 55.6353 37.0112 55.5721 37.2564 55.5721C37.6625 55.5721 37.9977 55.708 38.262 55.98C38.5302 56.2482 38.6643 56.5815 38.6643 56.9799C38.6643 57.3937 38.5244 57.7442 38.2448 58.0315C37.969 58.3188 37.6165 58.4625 37.1875 58.4625C36.7661 58.4625 36.4155 58.3207 36.1359 58.0372C35.8562 57.7499 35.7164 57.3879 35.7164 56.9512V56.1869C35.7164 55.6927 35.8639 55.3173 36.1589 55.0606C36.4538 54.804 36.8714 54.6756 37.4116 54.6756C37.6682 54.6756 37.8406 54.6565 37.9287 54.6182C38.0207 54.576 38.0667 54.5013 38.0667 54.394ZM37.1875 55.9571C36.8963 55.9571 36.6473 56.0586 36.4404 56.2616C36.2336 56.4608 36.1301 56.7098 36.1301 57.0086C36.1301 57.3075 36.2317 57.5584 36.4347 57.7614C36.6377 57.9606 36.8886 58.0602 37.1875 58.0602C37.4824 58.0602 37.7314 57.9606 37.9345 57.7614C38.1375 57.5584 38.239 57.3075 38.239 57.0086C38.239 56.7098 38.1356 56.4608 37.9287 56.2616C37.7219 56.0586 37.4748 55.9571 37.1875 55.9571Z" fill="#716765"/>
<path d="M44.2825 56.4742H45.2708C45.6808 56.4742 45.9719 56.5681 46.1443 56.7558C46.3205 56.9435 46.4086 57.1715 46.4086 57.4396C46.4086 57.566 46.3895 57.6829 46.3512 57.7901C46.3167 57.8974 46.2592 58.0009 46.1788 58.1005C46.0983 58.1962 45.9796 58.2728 45.8225 58.3303C45.6693 58.3878 45.4854 58.4165 45.2708 58.4165H43.863V55.5433H44.2825V56.4742ZM44.2767 58.0257H45.3053C45.7612 58.0257 45.9891 57.8304 45.9891 57.4396C45.9891 57.0565 45.7612 56.865 45.3053 56.865H44.2767V58.0257Z" fill="#716765"/>
<path d="M53.9927 55.5031C54.3987 55.5031 54.7454 55.6487 55.0328 55.9398C55.3239 56.2271 55.4695 56.5738 55.4695 56.9799C55.4695 57.386 55.3258 57.7327 55.0385 58.02C54.7512 58.3073 54.4026 58.451 53.9927 58.451C53.6211 58.451 53.2974 58.3284 53.0215 58.0832C52.7457 57.838 52.5867 57.5335 52.5446 57.1695H51.9929V58.4165H51.5734V55.5433H51.9929V56.7673H52.5561C52.5982 56.4072 52.7553 56.1065 53.0273 55.8651C53.3031 55.6238 53.6249 55.5031 53.9927 55.5031ZM53.2456 57.7442C53.4525 57.9472 53.7015 58.0487 53.9927 58.0487C54.2838 58.0487 54.5328 57.9472 54.7397 57.7442C54.9466 57.5411 55.05 57.2864 55.05 56.9799C55.05 56.6734 54.9466 56.4187 54.7397 56.2156C54.5328 56.0088 54.2838 55.9053 53.9927 55.9053C53.7053 55.9053 53.4582 56.0088 53.2514 56.2156C53.0445 56.4187 52.9411 56.6734 52.9411 56.9799C52.9411 57.2864 53.0426 57.5411 53.2456 57.7442Z" fill="#716765"/>
<path d="M61.7462 55.9398V58.4165H61.3267V55.9398H60.2751V55.5433H62.7978V55.9398H61.7462Z" fill="#716765"/>
<path d="M70.4331 58.4165H70.0193V56.2444L68.1058 58.4165H67.8529V55.5433H68.2724V57.7154L70.186 55.5433H70.4331V58.4165Z" fill="#716765"/>
<path fill-rule="evenodd" clip-rule="evenodd" d="M21.0682 56.6453L21.0097 56.7037C20.7175 55.0671 20.3083 53.4889 19.8992 51.8522C18.3794 45.5395 18.7301 37.6485 20.7759 31.2189C21.1266 30.0498 21.5942 28.8808 22.0618 27.7118C22.4125 28.647 23.1724 29.5822 24.283 29.5822C25.8028 29.5822 27.0302 27.9456 26.7964 26.4843C26.6795 25.6075 26.1535 25.1399 25.3351 24.9061C24.6922 24.7308 23.9907 24.7307 23.3478 24.8477C23.9323 23.6786 24.5168 22.5096 25.2182 21.3406C26.1535 21.399 26.9718 20.9314 27.3809 20.1131C27.7317 19.4701 27.7317 18.5349 27.3809 17.8919C27.9655 17.0152 28.55 16.1968 29.1929 15.3201C29.3683 15.3785 29.5436 15.3785 29.6605 15.3785C30.4788 15.437 31.3556 15.3785 31.9402 14.794C33.1092 13.6834 32.4078 11.813 31.0049 11.2869C29.4852 10.7024 28.433 12.0468 28.1992 13.4496C28.1408 13.8588 28.0823 14.3848 28.3162 14.7356C27.7316 15.5539 27.1471 16.3722 26.6211 17.1905C25.8612 16.7229 24.1661 16.5475 23.3478 16.9567C22.471 17.4243 22.0619 18.6518 22.5295 19.6455C22.8217 20.3469 23.4647 20.873 24.2245 21.1652C23.4647 22.5096 22.7633 23.854 22.1787 25.1983L22.0618 25.2568C21.4189 24.2631 20.3083 22.9188 19.0224 22.8018C18.0287 22.6849 17.035 23.3864 16.7428 24.38C16.4505 25.3737 17.035 26.4843 17.9118 26.835C18.9639 27.3026 20.4837 26.7766 21.5358 26.4258C20.8928 27.9456 20.3083 29.5238 19.7822 31.0435C18.2625 35.7781 17.678 41.2725 18.0287 46.3578C17.3857 44.7211 16.7428 43.143 15.9829 41.5063C16.8597 41.0972 17.5026 40.2204 17.7949 39.4605C18.204 38.4668 18.0871 37.4147 17.5026 36.5964C17.2104 36.1872 16.8012 35.9534 16.3921 36.0119C15.9829 36.0703 15.6322 36.3626 15.3984 36.8302C15.0477 37.5316 14.9308 38.2915 14.7554 39.0514C13.9371 37.4147 13.1188 35.8365 12.3589 34.1999C13.0019 34.2583 13.6448 34.083 14.4047 33.4985C15.1061 32.9724 15.3399 31.9787 15.1061 30.9266C14.9308 30.1083 14.5216 29.5238 13.9371 29.29C12.9434 28.8808 11.8328 29.5822 11.3652 30.5759C11.1899 30.8681 11.1314 31.1604 11.0145 31.5111C8.91027 27.0104 7.15673 22.4511 6.74757 17.4828C7.50744 17.8919 8.44266 18.0088 9.26098 17.7166C10.9561 17.0736 11.7159 14.6186 10.0793 13.4496C9.20251 12.8066 7.6828 12.9235 6.74757 13.3912C6.92293 11.5792 7.27362 9.82561 7.97504 8.07207C8.1504 8.13052 8.26729 8.18898 8.44265 8.18898C9.14406 8.18898 10.0208 7.66292 10.3715 7.0784C10.7222 6.49389 10.6638 5.85093 10.2547 5.38332C9.7286 4.74035 8.5011 4.50653 7.68278 4.85724C7.03982 5.1495 6.68912 5.67557 6.74757 6.43543C6.74757 6.78614 6.9229 7.13686 7.15671 7.42912C5.16936 12.1052 5.40316 17.1321 6.27993 21.399C5.40316 20.9314 4.23413 21.399 3.64962 21.9251C2.9482 22.5096 2.42216 23.7955 2.83132 24.6723C3.18203 25.4906 4.23413 25.8998 5.1109 25.8998C5.81232 25.8998 6.86446 25.666 7.27362 24.9646C7.97503 27.1273 8.85182 29.29 9.8455 31.3358C9.31943 30.8097 8.7349 30.3421 8.15039 30.1083C7.21517 29.816 6.16303 29.8745 5.40316 30.459C4.52639 31.1019 4.11723 32.271 4.52639 33.2062C5.05245 34.4921 6.98135 35.1936 8.32574 35.1936C9.43631 35.1936 10.43 34.726 11.1314 33.8492C12.242 36.0704 13.411 38.2915 14.4631 40.5711C13.9955 40.3958 13.5864 40.1619 13.1188 40.045C12.3004 39.8112 11.5406 39.6943 10.7223 39.7528C10.3716 39.7528 10.0209 39.8112 9.67015 39.9281C8.85183 40.2788 8.44265 41.1556 8.2673 41.7986C8.09194 42.4415 8.03351 43.4352 8.50112 44.1951C8.96873 44.9549 9.90393 45.3641 10.7807 45.3057C12.6512 45.2472 14.3463 43.4937 15.1061 41.9155C16.6843 45.2472 17.9118 48.6374 18.9055 52.2029C18.9055 52.2614 18.9055 52.3198 18.9639 52.3198C21.2435 60.6784 21.8865 69.4461 20.7759 78.0385L21.7696 78.1554C22.5879 72.018 22.5295 65.7637 21.5942 59.6847C21.4773 59.2171 21.3604 58.808 21.3604 58.2819C21.1266 57.7558 21.0682 57.2298 21.0682 56.6453Z" fill="#B18373"/>
<path fill-rule="evenodd" clip-rule="evenodd" d="M2.18826 56.8203C1.95445 57.3463 1.83755 57.8724 1.896 58.3985C1.95445 58.983 2.30516 59.509 2.77277 59.8597C3.06503 60.0351 3.35729 60.2104 3.76645 60.2689C3.94181 60.3273 4.11718 60.3273 4.29253 60.3273C5.0524 60.3273 5.75383 60.0351 6.16299 59.509C6.6306 58.866 6.68903 58.0477 6.68903 57.3463C6.68903 56.2942 6.10451 55.5928 5.22774 55.359C4.05871 55.1252 2.71432 55.7681 2.18826 56.8203Z" fill="#B18373"/>
<path fill-rule="evenodd" clip-rule="evenodd" d="M3.53264 10.2344C3.53264 10.1175 3.53262 9.94211 3.47417 9.76676C3.29881 9.00689 2.5974 8.42236 1.83753 8.42236C1.19457 8.42236 0.610038 8.83153 0.434683 9.4745C0.259329 10.059 0.493149 10.7604 0.960761 11.1111C1.25302 11.3449 1.60373 11.4618 1.95444 11.4618C2.18825 11.4618 2.42206 11.4034 2.65587 11.2865C3.18193 11.1696 3.47419 10.7604 3.53264 10.2344Z" fill="#B18373"/>
<path fill-rule="evenodd" clip-rule="evenodd" d="M12.4173 2.92811C12.7096 3.04502 13.0019 3.10346 13.2357 3.10346C13.3526 3.10346 13.4695 3.10347 13.5864 3.04502C14.054 2.92812 14.4632 2.63585 14.6385 2.22669C14.8139 1.75908 14.697 1.29148 14.5801 0.999221C14.4047 0.356254 13.8786 -0.0529133 13.2357 0.00553821C12.4758 0.0639897 11.7159 0.765411 11.599 1.52528C11.5406 1.81754 11.599 2.05134 11.716 2.28514C11.8329 2.5774 12.0666 2.75276 12.4173 2.92811Z" fill="#B18373"/>
<path fill-rule="evenodd" clip-rule="evenodd" d="M29.1928 8.89001C29.4851 9.12382 29.8943 9.24071 30.3034 9.29916C30.3619 9.29916 30.3619 9.29916 30.4203 9.29916C31.0633 9.29916 31.7063 9.00691 32.1154 8.5393C32.583 7.95479 32.7584 7.19492 32.4662 6.55195C31.9985 5.55828 30.5957 5.55827 29.8358 5.90898C29.2513 6.14279 28.8422 6.66884 28.6668 7.19491C28.4915 7.77942 28.7252 8.48085 29.1928 8.89001Z" fill="#B18373"/>
<path fill-rule="evenodd" clip-rule="evenodd" d="M11.8912 56.5281C9.67 55.1252 7.56574 53.547 5.63684 51.735C5.57839 51.6766 5.51993 51.6182 5.51993 51.5597C4.81851 52.1442 3.82484 52.2611 3.00652 51.7935C2.1882 51.3843 1.77903 50.6245 1.89593 49.7477C2.01283 48.6956 2.83118 47.7604 3.82486 47.4681C4.64318 47.2343 5.46149 47.585 6.04601 48.3449C6.22136 48.5787 6.39672 48.8125 6.45517 49.1632C6.57208 49.6892 6.3967 50.3322 6.10444 50.7998C6.16289 50.7998 6.22134 50.8583 6.27979 50.9167C8.03333 52.5534 9.96224 53.9562 11.9496 55.3006C12.651 53.1963 15.4567 52.9625 16.6257 54.833C17.2102 55.7682 17.2102 57.0541 16.6842 58.2231C18.087 58.983 19.4898 59.7429 20.8927 60.5028C20.9511 60.9119 21.0096 61.3211 21.1265 61.7302C19.4898 60.8535 17.7947 59.9767 16.1581 59.0415C15.3398 59.8013 14.2876 59.6845 13.4109 58.983C12.651 58.3985 12.0665 57.4048 11.8912 56.5281Z" fill="#B18373"/>
<path fill-rule="evenodd" clip-rule="evenodd" d="M53.7424 6.78613C48.1896 6.78613 42.812 7.95516 37.7852 10.2348L38.2528 11.3453C43.1043 9.12419 48.3065 8.01362 53.7424 8.01362C74.4343 8.01362 91.3267 24.8476 91.3267 45.5979C91.3267 66.2897 74.4927 83.1822 53.7424 83.1822C43.1627 83.1822 32.9922 78.6814 25.8611 70.7905L24.9843 71.6088C32.3492 79.7336 42.812 84.4097 53.7424 84.4097C75.1357 84.4097 92.4958 67.0496 92.4958 45.6564C92.4958 24.2047 75.0772 6.78613 53.7424 6.78613Z" fill="#716765"/>
<path fill-rule="evenodd" clip-rule="evenodd" d="M31.3556 23.5612C31.1802 23.8534 31.1218 24.2041 31.1802 24.4964C31.2387 24.8471 31.414 25.1394 31.7063 25.3732C31.8816 25.4901 32.057 25.5485 32.2908 25.607C32.4077 25.607 32.4662 25.607 32.5831 25.607C33.0507 25.607 33.4598 25.4316 33.6937 25.1394C33.9859 24.7886 33.9859 24.321 33.9859 23.8534C33.9859 23.2689 33.6352 22.8013 33.1091 22.6844C32.4662 22.5675 31.7063 22.9182 31.3556 23.5612Z" fill="#B18373"/>
<path fill-rule="evenodd" clip-rule="evenodd" d="M40.5908 21.6325C40.8246 21.9247 41.1753 22.217 41.5845 22.3339C42.0521 22.4508 42.5197 22.4508 42.9289 22.2754C43.1627 22.1585 43.3965 22.0416 43.5719 21.8078C43.6303 21.6909 43.7472 21.6325 43.8056 21.5156C44.0979 21.048 44.1564 20.5219 43.9226 20.1127C43.6887 19.5867 43.1042 19.3529 42.6366 19.1191C41.9352 18.8268 41.2338 18.8853 40.7662 19.3529C40.1232 19.9958 40.0648 20.9895 40.5908 21.6325Z" fill="#B18373"/>
<path d="M42.4477 37.9156C41.8972 37.9462 41.4919 38.0074 41.2319 38.0991C40.9873 38.1909 40.819 38.3667 40.7273 38.6267C40.6355 38.8867 40.5896 39.3072 40.5896 39.8884V51.2662C40.5896 51.8473 40.6355 52.2679 40.7273 52.5279C40.819 52.7878 40.9873 52.9637 41.2319 53.0555C41.4919 53.1472 41.8972 53.2084 42.4477 53.239V53.6978C41.7443 53.6519 40.7732 53.6289 39.5344 53.6289C38.2193 53.6289 37.2405 53.6519 36.5982 53.6978V53.239C37.1488 53.2084 37.5464 53.1472 37.7911 53.0555C38.051 52.9637 38.2269 52.7878 38.3187 52.5279C38.4104 52.2679 38.4563 51.8473 38.4563 51.2662V38.9708L32.928 53.8125H32.5609L26.7803 38.9249V51.0368C26.7803 51.6332 26.8261 52.0767 26.9179 52.3673C27.025 52.6578 27.2238 52.8719 27.5143 53.0096C27.8049 53.1319 28.256 53.2084 28.8677 53.239V53.6978C28.3172 53.6519 27.5373 53.6289 26.5279 53.6289C25.6104 53.6289 24.8993 53.6519 24.3946 53.6978V53.239C24.9298 53.2084 25.3275 53.1319 25.5874 53.0096C25.8474 52.8719 26.0233 52.6578 26.115 52.3673C26.2068 52.0614 26.2527 51.6179 26.2527 51.0368V39.8884C26.2527 39.3072 26.2068 38.8867 26.115 38.6267C26.0233 38.3667 25.8474 38.1909 25.5874 38.0991C25.3428 38.0074 24.9451 37.9462 24.3946 37.9156V37.4568C24.8993 37.5027 25.6104 37.5256 26.5279 37.5256C27.3232 37.5256 27.9731 37.5027 28.4778 37.4568L33.5244 50.7386L38.4563 37.5256H39.5344C40.7732 37.5256 41.7443 37.5027 42.4477 37.4568V37.9156Z" fill="#B18373"/>
<path d="M51.8362 50.99C51.8362 51.537 51.8731 52.1577 51.9467 52.8521C51.2629 52.8205 50.1109 52.8047 48.4908 52.8047C46.5446 52.8047 45.0717 52.8205 44.0723 52.8521V52.5364C44.451 52.5154 44.7246 52.4733 44.8929 52.4102C45.0717 52.3471 45.1927 52.2261 45.2558 52.0473C45.319 51.8684 45.3505 51.5791 45.3505 51.1793V44.9303C45.3505 44.5306 45.319 44.2413 45.2558 44.0624C45.1927 43.8836 45.0717 43.7626 44.8929 43.6995C44.7246 43.6363 44.451 43.5943 44.0723 43.5732V43.2576C45.0717 43.2892 46.5446 43.305 48.4908 43.305C49.9636 43.305 51.0104 43.2892 51.6311 43.2576C51.5575 43.8888 51.5206 44.4569 51.5206 44.9619C51.5206 45.3722 51.5364 45.6983 51.568 45.9403H51.205C51.1314 45.0776 50.9473 44.478 50.6527 44.1413C50.3687 43.7941 49.9005 43.6206 49.2483 43.6206H48.0963C47.7176 43.6206 47.4388 43.6521 47.2599 43.7152C47.0916 43.7678 46.9759 43.8836 46.9128 44.0624C46.8497 44.2413 46.8181 44.5306 46.8181 44.9303V47.8655H48.1279C48.4645 47.8655 48.7223 47.7813 48.9011 47.613C49.0799 47.4341 49.2009 47.2448 49.264 47.0449C49.3272 46.8345 49.385 46.5715 49.4376 46.2559H49.8006C49.769 46.6136 49.7532 47.0028 49.7532 47.4236V48.0233C49.7532 48.4336 49.7848 49.0227 49.8479 49.7907H49.485C49.4218 49.2857 49.3009 48.8912 49.122 48.6071C48.9432 48.3231 48.6118 48.1811 48.1279 48.1811H46.8181V51.1793C46.8181 51.5791 46.8497 51.8684 46.9128 52.0473C46.9759 52.2261 47.0916 52.3471 47.2599 52.4102C47.4388 52.4628 47.7176 52.4891 48.0963 52.4891H49.2483C49.7743 52.4891 50.1898 52.4049 50.4949 52.2366C50.8 52.0683 51.0314 51.8 51.1892 51.4318C51.347 51.0531 51.4575 50.5271 51.5206 49.8538H51.8836C51.852 50.1378 51.8362 50.5166 51.8362 50.99Z" fill="#B18373"/>
<path d="M62.422 43.5732C62.0433 43.5943 61.7645 43.6363 61.5856 43.6995C61.4173 43.7626 61.3016 43.8836 61.2385 44.0624C61.1754 44.2413 61.1438 44.5306 61.1438 44.9303V51.1793C61.1438 51.5791 61.1754 51.8684 61.2385 52.0473C61.3016 52.2261 61.4173 52.3471 61.5856 52.4102C61.7645 52.4733 62.0433 52.5154 62.422 52.5364V52.8521C61.9801 52.8205 61.3016 52.8047 60.3863 52.8047C59.408 52.8047 58.64 52.8205 58.0824 52.8521V52.5364C58.5558 52.5154 58.8977 52.4733 59.1081 52.4102C59.3185 52.3471 59.4658 52.2261 59.55 52.0473C59.6341 51.8684 59.6762 51.5791 59.6762 51.1793V48.6229C59.3396 48.7807 58.9398 48.9175 58.4769 49.0332C58.014 49.1384 57.5406 49.191 57.0567 49.191C56.1835 49.191 55.4997 49.0069 55.0052 48.6387C54.7212 48.4178 54.5213 48.1548 54.4056 47.8497C54.3004 47.5341 54.2478 47.0922 54.2478 46.5241V44.7252C54.2478 44.2939 54.1584 43.9993 53.9795 43.8415C53.8007 43.6732 53.4903 43.589 53.0485 43.589V43.2576C54.0163 43.2997 54.6633 43.3207 54.9895 43.3207C55.284 43.3207 55.8732 43.2997 56.7569 43.2576V43.589C56.3676 43.589 56.0941 43.6732 55.9363 43.8415C55.789 43.9993 55.7154 44.2939 55.7154 44.7252V46.8713C55.7154 47.2921 55.7574 47.6288 55.8416 47.8812C55.9363 48.1337 56.1256 48.3336 56.4097 48.4809C56.6937 48.6177 57.1146 48.686 57.6721 48.686C58.4401 48.686 59.1081 48.5703 59.6762 48.3389V44.9303C59.6762 44.5306 59.6447 44.2413 59.5815 44.0624C59.5184 43.8836 59.3974 43.7626 59.2186 43.6995C59.0503 43.6363 58.7767 43.5943 58.398 43.5732V43.2576C58.8399 43.2892 59.5026 43.305 60.3863 43.305C61.2595 43.305 61.9381 43.2892 62.422 43.2576V43.5732Z" fill="#B18373"/>
<path d="M72.5122 43.2576C72.4385 43.952 72.4017 44.5726 72.4017 45.1197C72.4017 45.6667 72.4175 46.0981 72.449 46.4137H72.0861C72.023 45.6773 71.923 45.1144 71.7863 44.7252C71.6495 44.3359 71.4286 44.0572 71.1235 43.8888C70.8184 43.71 70.3818 43.6206 69.8137 43.6206H68.8038V51.0215C68.8038 51.4634 68.8459 51.7843 68.93 51.9841C69.0142 52.184 69.1615 52.3208 69.3719 52.3944C69.5823 52.4681 69.9242 52.5154 70.3976 52.5364V52.8521C69.8505 52.8205 69.0773 52.8047 68.0779 52.8047C67.0259 52.8047 66.2474 52.8205 65.7424 52.8521V52.5364C66.2158 52.5154 66.5577 52.4681 66.7681 52.3944C66.9785 52.3208 67.1258 52.184 67.21 51.9841C67.2941 51.7843 67.3362 51.4634 67.3362 51.0215V43.6206H66.3263C65.7582 43.6206 65.3216 43.71 65.0165 43.8888C64.7114 44.0572 64.4905 44.3359 64.3537 44.7252C64.217 45.1144 64.117 45.6773 64.0539 46.4137H63.691C63.7225 46.077 63.7383 45.6457 63.7383 45.1197C63.7383 44.5726 63.7015 43.952 63.6278 43.2576C64.501 43.2892 65.9844 43.305 68.0779 43.305C70.1609 43.305 71.639 43.2892 72.5122 43.2576Z" fill="#B18373"/>
<path d="M81.0168 51.5265C81.3008 52.1788 81.6638 52.5154 82.1056 52.5364V52.8521C81.6848 52.8205 81.122 52.8047 80.4171 52.8047C79.5124 52.8047 78.8391 52.8205 78.3972 52.8521V52.5364C78.7865 52.5154 79.0705 52.4628 79.2494 52.3786C79.4387 52.2945 79.5334 52.1525 79.5334 51.9526C79.5334 51.7842 79.4598 51.537 79.3125 51.2109L78.5077 49.4119H74.6731L74.1366 50.5955C73.9577 51.0058 73.8683 51.3424 73.8683 51.6054C73.8683 51.8789 73.963 52.0946 74.1523 52.2524C74.3522 52.3997 74.6678 52.4944 75.0991 52.5364V52.8521C74.7835 52.8205 74.3049 52.8047 73.6631 52.8047C73.0214 52.8047 72.5638 52.8205 72.2903 52.8521V52.5364C72.5743 52.4628 72.8163 52.305 73.0161 52.063C73.216 51.8106 73.4054 51.4792 73.5842 51.0689L77.0717 43.1787H77.3242L81.0168 51.5265ZM78.3815 49.0963L76.5983 45.0881L74.7993 49.0963H78.3815Z" fill="#B18373"/>
</svg>
