<svg width="11" height="11" viewBox="0 0 11 11"  xmlns="http://www.w3.org/2000/svg">
<path d="M9.93721 0.930127C9.74618 0.735408 9.50394 0.598736 9.2385 0.535914C8.97305 0.473093 8.69525 0.486688 8.43721 0.575127L1.36221 2.94013C1.07686 3.03353 0.827551 3.2132 0.648684 3.45435C0.469816 3.69549 0.370215 3.98621 0.36363 4.28638C0.357045 4.58655 0.443801 4.88136 0.611921 5.13011C0.780041 5.37887 1.02124 5.5693 1.30221 5.67513L3.92221 6.67513C3.98187 6.69794 4.03619 6.7328 4.08178 6.77753C4.12737 6.82227 4.16326 6.87591 4.18721 6.93513L5.18721 9.56013C5.289 9.83712 5.47372 10.076 5.71619 10.2442C5.95867 10.4124 6.2471 10.5018 6.54221 10.5001H6.57721C6.87772 10.4947 7.16898 10.3953 7.41018 10.216C7.65138 10.0366 7.83042 9.78633 7.92221 9.50013L10.2872 2.41513C10.3732 2.1596 10.386 1.8851 10.3242 1.62267C10.2623 1.36024 10.1283 1.12035 9.93721 0.930127ZM9.36221 2.10013L6.97221 9.19013C6.94446 9.27986 6.88872 9.35836 6.81315 9.41414C6.73757 9.46992 6.64614 9.50005 6.55221 9.50013C6.45883 9.50166 6.36721 9.47473 6.2895 9.42293C6.2118 9.37113 6.15171 9.29691 6.11721 9.21013L5.11721 6.58513C5.04471 6.39439 4.9329 6.22103 4.78905 6.07632C4.64519 5.9316 4.47251 5.81876 4.28221 5.74513L1.65721 4.74513C1.56865 4.71268 1.49253 4.65323 1.4396 4.57517C1.38667 4.49712 1.35959 4.4044 1.36221 4.31013C1.36228 4.2162 1.39242 4.12476 1.44819 4.04919C1.50397 3.97362 1.58247 3.91788 1.67221 3.89013L8.76221 1.52513C8.84361 1.49195 8.93288 1.48306 9.01922 1.49954C9.10557 1.51602 9.18529 1.55715 9.24875 1.61797C9.31222 1.67879 9.35671 1.75669 9.37684 1.84226C9.39697 1.92782 9.39189 2.01739 9.36221 2.10013Z" />
</svg>
