<svg width="31" height="47" viewBox="0 0 31 47" fill="none" xmlns="http://www.w3.org/2000/svg">
  <path d="M5.59433 0.526632L5.59209 0.526675C5.20721 0.53418 4.91383 0.709769 4.73146 0.961641C4.56416 1.1927 4.50794 1.46065 4.50743 1.66959L4.50743 1.67019C4.50056 7.22764 4.50302 12.7381 4.5053 17.8646C4.5063 20.1076 4.50727 22.2771 4.50741 24.3449H1.61154H1.58566L1.55993 24.3475C0.934572 24.4124 0.439066 25.0075 0.506012 25.6399C0.571653 26.26 1.15949 26.7367 1.77501 26.6896H4.50743V32.2745H1.61154H1.58566L1.55993 32.2772C0.93457 32.3421 0.439066 32.9371 0.506012 33.5696C0.571646 34.1897 1.1595 34.6663 1.775 34.6193H4.50743V45.3276C4.50743 45.9605 5.05937 46.5 5.68647 46.5C6.31359 46.5 6.86552 45.9605 6.86552 45.3276V34.6193H21.4486C22.0757 34.6193 22.6277 34.0798 22.6277 33.4469C22.6277 32.814 22.0757 32.2745 21.4486 32.2745H6.86552V26.6896H17.9397H17.9484L17.957 26.6893C25.0842 26.442 30.69 20.4263 30.4951 13.2582C30.3027 6.18467 24.5374 0.540719 17.5447 0.526387H17.5437C16.2277 0.526387 14.9046 0.519849 13.579 0.513298C10.9149 0.500131 8.24077 0.486916 5.59433 0.526632ZM6.86552 24.3405V2.87171C7.89734 2.87325 8.93352 2.87921 9.97143 2.88518C12.3907 2.89909 14.8193 2.91306 17.2237 2.87126C23.1139 2.77453 27.9762 7.38233 28.1374 13.3094C28.2981 19.2119 23.7164 24.1421 17.869 24.3127H17.8689C15.2962 24.388 12.5486 24.3711 9.8205 24.3543C8.82984 24.3482 7.84175 24.3421 6.86552 24.3405Z" fill="white" stroke="white"/>
</svg>
