<svg xmlns="http://www.w3.org/2000/svg"><defs><linearGradient id="a" x1="12.168" y1="23.904" x2="12.191" y2=".29" gradientUnits="userSpaceOnUse"><stop stop-color="#5CC3F6"/><stop offset="1" stop-color="#376DE9"/></linearGradient><linearGradient id="a" x1="9.001" y1="1.001" x2="3.001" y2="15" gradientUnits="userSpaceOnUse"><stop stop-color="#37AEE2"/><stop offset="1" stop-color="#1E96C8"/></linearGradient><linearGradient id="a" x1="12" x2="12" y2="24" gradientUnits="userSpaceOnUse"><stop stop-color="#7DE777"/><stop offset="1" stop-color="#5CC34D"/></linearGradient></defs><symbol id="facebook-th" viewBox="0 0 49.652 49.652"><path d="M24.826 0C11.137 0 0 11.137 0 24.826c0 13.688 11.137 24.826 24.826 24.826 13.688 0 24.826-11.138 24.826-24.826C49.652 11.137 38.516 0 24.826 0zM31 25.7h-4.039v14.396h-5.985V25.7h-2.845v-5.088h2.845v-3.291c0-2.357 1.12-6.04 6.04-6.04l4.435.017v4.939h-3.219c-.524 0-1.269.262-1.269 1.386v2.99h4.56L31 25.7z"/></symbol><symbol id="icon-close" viewBox="0 0 14 14"><path d="M12 0l1.414 1.414-5.293 5.293L13.414 12 12 13.414 6.707 8.121l-5.293 5.293L0 12l5.293-5.293L0 1.414 1.414 0l5.293 5.293L12 0z" fill="#AA8475"/></symbol><symbol id="icon-location" viewBox="0 0 11 11"><path d="M9.937.93a1.445 1.445 0 0 0-1.5-.355L1.362 2.94a1.45 1.45 0 0 0-.06 2.735l2.62 1a.465.465 0 0 1 .265.26l1 2.625a1.435 1.435 0 0 0 1.355.94h.035a1.44 1.44 0 0 0 1.345-1l2.365-7.085A1.446 1.446 0 0 0 9.937.93zM9.362 2.1l-2.39 7.09a.44.44 0 0 1-.42.31.46.46 0 0 1-.435-.29l-1-2.625a1.455 1.455 0 0 0-.835-.84l-2.625-1a.45.45 0 0 1-.295-.435.44.44 0 0 1 .31-.42l7.09-2.365a.455.455 0 0 1 .6.575z"/></symbol><symbol id="icon-mail-ios" viewBox="0 0 24 24"><path d="M0 5a5 5 0 0 1 5-5h14a5 5 0 0 1 5 5v14a5 5 0 0 1-5 5H5a5 5 0 0 1-5-5V5z" fill="url(#a)"/><path d="M19.723 7.39L14.955 12l4.768 4.61a1.3 1.3 0 0 0 .139-.575v-8.07a1.3 1.3 0 0 0-.139-.576zM18.48 6.62H5.52c-.213 0-.412.051-.592.135l6.094 5.902a1.41 1.41 0 0 0 1.955 0l6.094-5.902a1.397 1.397 0 0 0-.592-.134zM4.276 7.39a1.3 1.3 0 0 0-.138.576v8.069c0 .207.052.4.138.576L9.045 12 4.276 7.39z" fill="#F5F5F5"/><path d="M14.303 12.634l-.675.656a2.351 2.351 0 0 1-3.257 0l-.675-.656-4.768 4.61c.18.084.379.135.592.135h12.96c.212 0 .411-.05.591-.135l-4.768-4.61z" fill="#F5F5F5"/></symbol><symbol id="icon-phone" viewBox="0 0 11 11"><path d="M9.082 6.05c-.11 0-.225-.038-.335-.066a4.404 4.404 0 0 1-.655-.214.915.915 0 0 0-.716.013 1.045 1.045 0 0 0-.524.537l-.11.247a6.18 6.18 0 0 1-1.33-1.1 6.685 6.685 0 0 1-1-1.463l.21-.154c.222-.12.396-.325.488-.576.092-.252.096-.533.012-.788a6.117 6.117 0 0 1-.195-.72 4.453 4.453 0 0 1-.06-.374 1.692 1.692 0 0 0-.52-.99 1.418 1.418 0 0 0-.98-.38h-1.5a1.384 1.384 0 0 0-.626.143 1.518 1.518 0 0 0-.514.417 1.703 1.703 0 0 0-.31.615 1.809 1.809 0 0 0-.05.7C.633 4.203 1.59 6.344 3.086 7.983c1.496 1.64 3.445 2.684 5.541 2.969h.19c.369 0 .725-.149 1-.418a1.65 1.65 0 0 0 .37-.56c.087-.213.131-.444.13-.678v-1.65a1.749 1.749 0 0 0-.358-1.04 1.475 1.475 0 0 0-.877-.555zm.25 3.3a.597.597 0 0 1-.045.227.518.518 0 0 1-.317.302.484.484 0 0 1-.218.021C6.88 9.636 5.14 8.694 3.808 7.222c-1.331-1.472-2.18-3.39-2.41-5.45a.657.657 0 0 1 .124-.452.506.506 0 0 1 .17-.138.462.462 0 0 1 .205-.049h1.5a.471.471 0 0 1 .321.118.56.56 0 0 1 .18.317 6.585 6.585 0 0 0 .305 1.298l-.7.357a.505.505 0 0 0-.16.126.6.6 0 0 0-.087.605c.72 1.696 1.96 3.06 3.501 3.85a.458.458 0 0 0 .38 0 .494.494 0 0 0 .169-.11.55.55 0 0 0 .116-.175l.31-.77c.259.101.522.186.79.253.133.033.268.06.405.082a.496.496 0 0 1 .288.197c.072.1.11.225.107.353l.01 1.716z"/></symbol><symbol id="icon-play" viewBox="0 0 20 20"><circle cx="10" cy="10" r="10" fill="#B5352E"/><path d="M15 10l-7.5 4.33V5.67L15 10z" fill="#fff"/></symbol><symbol id="icon-rub" viewBox="0 0 31 47"><path d="M5.594.527h-.002a1.057 1.057 0 0 0-.86.435 1.229 1.229 0 0 0-.225.708c-.006 5.558-.004 11.068-.002 16.195l.002 6.48H1.586l-.026.003c-.625.064-1.12.66-1.054 1.292.066.62.653 1.097 1.269 1.05h2.732v5.585H1.586l-.026.002c-.625.065-1.12.66-1.054 1.293.066.62.653 1.096 1.269 1.05h2.732v10.708c0 .633.552 1.172 1.18 1.172.627 0 1.179-.54 1.179-1.172V34.619h14.583c.627 0 1.179-.54 1.179-1.172 0-.633-.552-1.172-1.18-1.172H6.867V26.69h11.091c7.127-.248 12.733-6.264 12.538-13.432C30.303 6.185 24.537.541 17.545.526h-.001c-1.316 0-2.64-.006-3.965-.013C10.915.5 8.241.487 5.594.527zM6.866 24.34V2.872c1.031.001 2.068.007 3.105.013 2.42.014 4.848.028 7.253-.014A10.703 10.703 0 0 1 28.137 13.31c.161 5.903-4.42 10.833-10.268 11.004-2.573.075-5.32.058-8.049.041-.99-.006-1.978-.012-2.954-.014z" fill="#fff" stroke="#fff"/></symbol><symbol id="icon-tg" viewBox="0 0 24 24"><path d="M0 5a5 5 0 0 1 5-5h14a5 5 0 0 1 5 5v14a5 5 0 0 1-5 5H5a5 5 0 0 1-5-5V5z" fill="url(#a)"/><path d="M4.39 12.424c1.43-.788 3.028-1.447 4.521-2.108 2.568-1.083 5.146-2.147 7.75-3.138.507-.17 1.418-.334 1.507.417-.049 1.062-.25 2.12-.388 3.176-.35 2.323-.755 4.64-1.15 6.955-.135.772-1.102 1.171-1.72.677-1.486-1.003-2.984-1.997-4.45-3.024-.481-.489-.036-1.19.394-1.539 1.224-1.206 2.522-2.23 3.682-3.5.313-.755-.612-.118-.917.077-1.676 1.155-3.31 2.38-5.077 3.395-.902.496-1.954.072-2.856-.205-.809-.335-1.994-.673-1.297-1.183z" fill="#F5F5F5"/></symbol><symbol id="icon-wp" viewBox="0 0 24 24"><path d="M0 5a5 5 0 0 1 5-5h14a5 5 0 0 1 5 5v14a5 5 0 0 1-5 5H5a5 5 0 0 1-5-5V5z" fill="url(#a)"/><path d="M15.764 13.622l-.006.052c-1.517-.756-1.675-.857-1.871-.563-.136.203-.532.665-.651.801-.121.135-.241.145-.446.052-.207-.104-.871-.32-1.657-1.024-.612-.548-1.024-1.22-1.145-1.428-.202-.349.22-.398.606-1.127.069-.144.033-.258-.018-.36-.051-.104-.463-1.118-.636-1.522-.165-.403-.335-.352-.463-.352-.397-.034-.688-.029-.943.237-1.113 1.224-.833 2.486.12 3.828 1.871 2.45 2.869 2.9 4.692 3.527.492.156.941.134 1.296.083.396-.063 1.219-.497 1.39-.983.177-.487.177-.89.125-.983-.051-.093-.186-.145-.393-.238z" fill="#F5F5F5"/><path d="M17.876 6.103C12.573.977 3.798 4.695 3.794 11.926c0 1.446.379 2.855 1.1 4.1l-1.17 4.25 4.37-1.14c5.451 2.945 12.18-.965 12.182-7.205 0-2.19-.855-4.252-2.41-5.801l.01-.027zm1.022 5.805c-.004 5.264-5.782 8.551-10.353 5.864l-.248-.147-2.586.672.693-2.514-.165-.258C3.395 10.997 6.662 5.08 12.05 5.08c1.83 0 3.548.714 4.842 2.007a6.75 6.75 0 0 1 2.006 4.82z" fill="#F5F5F5"/></symbol><symbol id="instagram-th" viewBox="0 0 89.758 89.758"><path d="M58.255 23.88H31.503c-4.27 0-7.744 3.474-7.744 7.744v26.752c0 4.27 3.474 7.745 7.744 7.745h26.752c4.27 0 7.745-3.474 7.745-7.745V31.624c0-4.27-3.474-7.744-7.745-7.744zM44.879 58.906c-7.667 0-13.905-6.238-13.905-13.906 0-7.667 6.238-13.905 13.905-13.905 7.668 0 13.906 6.238 13.906 13.905 0 7.667-6.239 13.906-13.906 13.906zM59.232 33.97a3.294 3.294 0 0 1-3.291-3.29 3.294 3.294 0 0 1 3.291-3.29 3.294 3.294 0 0 1 3.29 3.29 3.294 3.294 0 0 1-3.29 3.29z"/><path d="M44.879 36.971c-4.426 0-8.03 3.602-8.03 8.028 0 4.428 3.604 8.031 8.03 8.031 4.428 0 8.029-3.603 8.029-8.031 0-4.425-3.602-8.028-8.029-8.028z"/><path d="M44.879 0C20.094 0 0 20.094 0 44.879c0 24.785 20.094 44.879 44.879 44.879 24.785 0 44.879-20.094 44.879-44.879C89.758 20.094 69.664 0 44.879 0zm26.996 58.376c0 7.511-6.109 13.62-13.62 13.62H31.503c-7.51 0-13.62-6.109-13.62-13.62V31.624c0-7.51 6.11-13.62 13.62-13.62h26.752c7.511 0 13.62 6.11 13.62 13.62v26.752z"/></symbol><symbol id="vk-th" viewBox="0 0 97.75 97.75"><path d="M48.875 0C21.883 0 0 21.882 0 48.875S21.883 97.75 48.875 97.75 97.75 75.868 97.75 48.875 75.867 0 48.875 0zm24.792 54.161c2.278 2.225 4.688 4.319 6.733 6.774.906 1.086 1.76 2.209 2.41 3.472.928 1.801.09 3.776-1.522 3.883l-10.013-.002c-2.586.214-4.644-.829-6.379-2.597-1.385-1.409-2.67-2.914-4.004-4.371-.545-.598-1.119-1.161-1.803-1.604-1.365-.888-2.551-.616-3.333.81-.797 1.451-.979 3.059-1.055 4.674-.109 2.361-.821 2.978-3.19 3.089-5.062.237-9.865-.531-14.329-3.083-3.938-2.251-6.986-5.428-9.642-9.025-5.172-7.012-9.133-14.708-12.692-22.625-.801-1.783-.215-2.737 1.752-2.774 3.268-.063 6.536-.055 9.804-.003 1.33.021 2.21.782 2.721 2.037 1.766 4.345 3.931 8.479 6.644 12.313.723 1.021 1.461 2.039 2.512 2.76 1.16.796 2.044.533 2.591-.762.35-.823.501-1.703.577-2.585.26-3.021.291-6.041-.159-9.05-.28-1.883-1.339-3.099-3.216-3.455-.956-.181-.816-.535-.351-1.081.807-.944 1.563-1.528 3.074-1.528l11.313-.002c1.783.35 2.183 1.15 2.425 2.946l.01 12.572c-.021.695.349 2.755 1.597 3.21 1 .33 1.66-.472 2.258-1.105 2.713-2.879 4.646-6.277 6.377-9.794.764-1.551 1.423-3.156 2.063-4.764.476-1.189 1.216-1.774 2.558-1.754l10.894.013c.321 0 .647.003.965.058 1.836.314 2.339 1.104 1.771 2.895-.894 2.814-2.631 5.158-4.329 7.508-1.82 2.516-3.761 4.944-5.563 7.471-1.656 2.31-1.525 3.473.531 5.479z"/></symbol></svg>