<svg width="24" height="24" viewBox="0 0 24 24" fill="none" xmlns="http://www.w3.org/2000/svg">
<path d="M0 5C0 2.23858 2.23858 0 5 0H19C21.7614 0 24 2.23858 24 5V19C24 21.7614 21.7614 24 19 24H5C2.23858 24 0 21.7614 0 19V5Z" fill="url(#paint0_linear_2_2956)"/>
<path d="M15.7638 13.6219L15.7576 13.6737C14.2411 12.9178 14.0825 12.8171 13.8866 13.1109C13.7507 13.3144 13.3549 13.7757 13.2356 13.9123C13.1149 14.0468 12.9949 14.0571 12.7901 13.964C12.5832 13.8605 11.919 13.6433 11.1329 12.9399C10.5205 12.3916 10.1094 11.7192 9.98805 11.5123C9.78598 11.1634 10.2087 11.1137 10.5936 10.3854C10.6625 10.2406 10.6273 10.1268 10.5763 10.0241C10.5246 9.92062 10.1129 8.90684 9.94046 8.50271C9.77495 8.09996 9.60461 8.151 9.47702 8.151C9.07979 8.11651 8.78945 8.12203 8.53359 8.38823C7.42051 9.61166 7.70119 10.8737 8.65359 12.2158C10.5253 14.6654 11.5225 15.1164 13.3459 15.7426C13.8383 15.8991 14.2873 15.8771 14.6424 15.826C15.0383 15.7633 15.861 15.3288 16.0328 14.8426C16.2086 14.3564 16.2086 13.953 16.1569 13.8599C16.1059 13.7668 15.9707 13.715 15.7638 13.6219Z" fill="#F5F5F5"/>
<path d="M17.8761 6.103C12.5734 0.976883 3.79771 4.69475 3.79426 11.9263C3.79426 13.3718 4.17288 14.7815 4.89424 16.0263L3.72461 20.2758L8.0935 19.1366C13.5451 22.0813 20.2733 18.1711 20.276 11.9305C20.276 9.74017 19.4209 7.67883 17.8657 6.12989L17.8761 6.103ZM18.8981 11.9077C18.894 17.1718 13.1155 20.4593 8.54521 17.7724L8.29694 17.6249L5.71078 18.2973L6.40387 15.7835L6.23905 15.5249C3.39496 10.9974 6.66249 5.08026 12.05 5.08026C13.8803 5.08026 15.5982 5.79404 16.892 7.08712C18.185 8.36916 18.8981 10.0871 18.8981 11.9077Z" fill="#F5F5F5"/>
<defs>
<linearGradient id="paint0_linear_2_2956" x1="12" y1="0" x2="12" y2="24" gradientUnits="userSpaceOnUse">
<stop stop-color="#7DE777"/>
<stop offset="1" stop-color="#5CC34D"/>
</linearGradient>
</defs>
</svg>
