<svg width="24" height="24" viewBox="0 0 24 24" fill="none" xmlns="http://www.w3.org/2000/svg">
<path d="M0 5C0 2.23858 2.23858 0 5 0H19C21.7614 0 24 2.23858 24 5V19C24 21.7614 21.7614 24 19 24H5C2.23858 24 0 21.7614 0 19V5Z" fill="url(#paint0_linear_2_2937)"/>
<path d="M4.38951 12.4238C5.82069 11.6355 7.41827 10.9775 8.91098 10.3162C11.479 9.23302 14.0572 8.16861 16.6615 7.17766C17.1682 7.00881 18.0786 6.84368 18.1679 7.59458C18.119 8.65746 17.9179 9.71411 17.78 10.7708C17.4299 13.0945 17.0253 15.4102 16.6307 17.7262C16.4947 18.4977 15.5283 18.897 14.91 18.4033C13.4239 17.3995 11.9264 16.4055 10.4593 15.3785C9.9787 14.8901 10.4243 14.1889 10.8536 13.8401C12.0775 12.6339 13.3756 11.6091 14.5356 10.3405C14.8485 9.5849 13.924 10.2217 13.619 10.4168C11.9434 11.5716 10.3088 12.7967 8.54211 13.8116C7.63972 14.3083 6.58796 13.8838 5.68597 13.6066C4.87722 13.2718 3.6921 12.9344 4.38943 12.4239L4.38951 12.4238Z" fill="#F5F5F5"/>
<defs>
<linearGradient id="paint0_linear_2_2937" x1="9.0014" y1="1.0008" x2="3.0014" y2="15" gradientUnits="userSpaceOnUse">
<stop stop-color="#37AEE2"/>
<stop offset="1" stop-color="#1E96C8"/>
</linearGradient>
</defs>
</svg>
