<svg width="11" height="11" viewBox="0 0 11 11"  xmlns="http://www.w3.org/2000/svg">
<path d="M9.08211 6.05015C8.97211 6.05015 8.85711 6.01165 8.74711 5.98415C8.52435 5.93015 8.30545 5.85846 8.09211 5.76965C7.86016 5.67682 7.60519 5.68164 7.37627 5.78318C7.14735 5.88472 6.96065 6.0758 6.85211 6.31965L6.74211 6.56715C6.25511 6.26915 5.8076 5.89902 5.41211 5.46715C5.0195 5.03211 4.68302 4.53985 4.41211 4.00415L4.62211 3.85015C4.84379 3.73075 5.0175 3.52539 5.10981 3.27358C5.20211 3.02177 5.2065 2.7413 5.12211 2.48615C5.04272 2.25098 4.97758 2.01029 4.92711 1.76565C4.90211 1.64465 4.88211 1.51815 4.86711 1.39165C4.80639 1.00424 4.62192 0.653405 4.34692 0.402329C4.07192 0.151252 3.72446 0.016432 3.36711 0.0221472H1.86711C1.65163 0.0199216 1.43824 0.0687946 1.24147 0.165439C1.0447 0.262083 0.869166 0.40423 0.726826 0.582202C0.584486 0.760175 0.478678 0.969794 0.416605 1.19679C0.354532 1.42379 0.337651 1.66283 0.367111 1.89765C0.63348 4.20181 1.59013 6.34268 3.08594 7.9821C4.58175 9.62152 6.53147 10.666 8.62711 10.9506H8.81711C9.18582 10.9512 9.54181 10.8024 9.81711 10.5326C9.97529 10.377 10.1017 10.1862 10.1878 9.97292C10.274 9.7596 10.3181 9.52859 10.3171 9.29515V7.64515C10.311 7.26311 10.1845 6.89525 9.95928 6.60436C9.73405 6.31348 9.42402 6.11759 9.08211 6.05015ZM9.33211 9.35015C9.33202 9.42824 9.31682 9.50542 9.2875 9.57654C9.25819 9.64767 9.21545 9.71111 9.16211 9.76265C9.10624 9.81571 9.04091 9.85535 8.97031 9.87903C8.89971 9.9027 8.82539 9.9099 8.75211 9.90015C6.87956 9.63604 5.14023 8.69372 3.80847 7.22181C2.47671 5.7499 1.62832 3.83218 1.39711 1.77115C1.38915 1.69058 1.39613 1.60908 1.41761 1.53156C1.4391 1.45405 1.47465 1.38213 1.52211 1.32015C1.56897 1.26148 1.62664 1.21446 1.6913 1.18222C1.75596 1.14997 1.82612 1.13325 1.89711 1.13315H3.39711C3.51338 1.1303 3.62692 1.17213 3.71818 1.25144C3.80944 1.33074 3.87272 1.44256 3.89711 1.56765C3.91711 1.71798 3.94211 1.86648 3.97211 2.01315C4.02987 2.30308 4.10674 2.588 4.20211 2.86565L3.50211 3.22315C3.44226 3.25335 3.38842 3.29627 3.34369 3.34943C3.29896 3.40258 3.26421 3.46494 3.24145 3.5329C3.21868 3.60087 3.20835 3.67312 3.21104 3.74549C3.21372 3.81787 3.22938 3.88895 3.25711 3.95465C3.97671 5.65016 5.21573 7.01309 6.75711 7.80465C6.87884 7.85966 7.01538 7.85966 7.13711 7.80465C7.19947 7.78011 7.25677 7.7422 7.3057 7.6931C7.35462 7.644 7.39419 7.58471 7.42211 7.51865L7.73211 6.74865C7.99059 6.85033 8.2544 6.93482 8.52211 7.00165C8.65545 7.03465 8.79045 7.06215 8.92711 7.08415C9.04083 7.11098 9.14248 7.18058 9.21458 7.28097C9.28667 7.38136 9.3247 7.50625 9.32211 7.63415L9.33211 9.35015Z"/>
</svg>
