<svg xmlns="http://www.w3.org/2000/svg" version="1.1" xmlns:xlink="http://www.w3.org/1999/xlink" xmlns:svgjs="http://svgjs.com/svgjs" width="512" height="512"><svg width="512" height="512" viewBox="0 0 512 512" fill="none" xmlns="http://www.w3.org/2000/svg">
<circle cx="256" cy="256" r="256" fill="#B5352E"></circle>
<path fill-rule="evenodd" clip-rule="evenodd" d="M260.184 358.228L259.844 358.568C258.147 349.063 255.771 339.897 253.395 330.392C244.569 293.731 246.605 247.904 258.487 210.563C260.523 203.774 263.239 196.985 265.955 190.195C267.991 195.627 272.404 201.058 278.854 201.058C287.68 201.058 294.809 191.553 293.451 183.067C292.772 177.975 289.717 175.259 284.964 173.901C281.23 172.883 277.157 172.883 273.423 173.562C276.817 166.773 280.212 159.983 284.285 153.194C289.717 153.534 294.469 150.818 296.846 146.066C298.882 142.332 298.882 136.9 296.846 133.166C300.24 128.074 303.635 123.322 307.369 118.23C308.387 118.569 309.405 118.569 310.084 118.569C314.837 118.909 319.929 118.569 323.323 115.175C330.113 108.725 326.039 97.8622 317.892 94.8071C309.066 91.4125 302.956 99.2201 301.598 107.367C301.258 109.743 300.919 112.799 302.277 114.835C298.882 119.588 295.488 124.34 292.433 129.093C288.02 126.377 278.175 125.359 273.423 127.735C268.331 130.45 265.955 137.579 268.67 143.35C270.368 147.423 274.102 150.479 278.515 152.176C274.102 159.983 270.028 167.791 266.634 175.599L265.955 175.938C262.22 170.167 255.771 162.36 248.303 161.681C242.532 161.002 236.761 165.075 235.064 170.846C233.366 176.617 236.761 183.067 241.853 185.104C247.963 187.819 256.789 184.764 262.9 182.727C259.165 191.553 255.771 200.719 252.716 209.545C243.89 237.041 240.495 268.95 242.532 298.483C238.798 288.978 235.064 279.813 230.651 270.308C235.743 267.932 239.477 262.84 241.174 258.427C243.55 252.656 242.871 246.546 239.477 241.793C237.779 239.417 235.403 238.059 233.027 238.399C230.651 238.738 228.614 240.435 227.256 243.151C225.219 247.225 224.54 251.638 223.522 256.051C218.77 246.546 214.017 237.38 209.604 227.875C213.338 228.215 217.072 227.197 221.485 223.802C225.559 220.747 226.917 214.976 225.559 208.866C224.541 204.113 222.164 200.719 218.77 199.361C212.999 196.985 206.549 201.058 203.833 206.829C202.815 208.526 202.476 210.224 201.797 212.26C189.576 186.122 179.392 159.644 177.016 130.79C181.429 133.166 186.86 133.845 191.613 132.148C201.457 128.414 205.87 114.156 196.365 107.367C191.273 103.633 182.448 104.312 177.016 107.028C178.035 96.5044 180.071 86.3206 184.145 76.1368C185.163 76.4762 185.842 76.8157 186.86 76.8157C190.934 76.8157 196.026 73.7606 198.063 70.366C200.099 66.9714 199.76 63.2374 197.384 60.5217C194.329 56.7876 187.2 55.4297 182.447 57.4665C178.713 59.1638 176.677 62.219 177.016 66.6319C177.016 68.6687 178.034 70.7055 179.392 72.4028C167.851 99.5596 169.208 128.753 174.3 153.534C169.208 150.818 162.419 153.534 159.025 156.589C154.951 159.983 151.896 167.452 154.272 172.544C156.309 177.296 162.419 179.672 167.511 179.672C171.585 179.672 177.695 178.314 180.071 174.241C184.145 186.801 189.237 199.361 195.008 211.242C191.952 208.187 188.558 205.471 185.163 204.113C179.732 202.416 173.621 202.755 169.208 206.15C164.117 209.884 161.74 216.673 164.117 222.105C167.172 229.573 178.374 233.646 186.181 233.646C192.631 233.646 198.402 230.931 202.476 225.839C208.925 238.738 215.714 251.638 221.825 264.877C219.109 263.858 216.733 262.5 214.017 261.821C209.265 260.464 204.852 259.785 200.099 260.124C198.063 260.124 196.026 260.464 193.989 261.143C189.237 263.179 186.86 268.271 185.842 272.005C184.824 275.739 184.484 281.51 187.2 285.923C189.916 290.336 195.347 292.712 200.439 292.373C211.302 292.033 221.146 281.85 225.559 272.684C234.724 292.033 241.853 311.722 247.624 332.429C247.624 332.769 247.624 333.108 247.963 333.108C261.202 381.651 264.936 432.57 258.487 482.47L264.257 483.149C269.01 447.506 268.67 411.184 263.239 375.88C262.56 373.164 261.881 370.788 261.881 367.733C260.523 364.678 260.184 361.623 260.184 358.228Z" fill="white"></path>
<path fill-rule="evenodd" clip-rule="evenodd" d="M150.538 359.244C149.18 362.3 148.501 365.355 148.84 368.41C149.18 371.805 151.217 374.86 153.932 376.896C155.63 377.915 157.327 378.933 159.703 379.272C160.722 379.612 161.74 379.612 162.758 379.612C167.171 379.612 171.245 377.915 173.621 374.86C176.337 371.125 176.676 366.373 176.676 362.299C176.676 356.189 173.282 352.116 168.19 350.758C161.4 349.4 153.593 353.134 150.538 359.244Z" fill="white"></path>
<path fill-rule="evenodd" clip-rule="evenodd" d="M158.345 88.6944C158.345 88.0155 158.345 86.9972 158.006 85.9788C156.987 81.5658 152.914 78.1711 148.501 78.1711C144.767 78.1711 141.372 80.5474 140.354 84.2815C139.335 87.6761 140.693 91.7496 143.409 93.7863C145.106 95.1442 147.143 95.8231 149.18 95.8231C150.538 95.8231 151.896 95.4836 153.253 94.8047C156.309 94.1257 158.006 91.7496 158.345 88.6944Z" fill="white"></path>
<path fill-rule="evenodd" clip-rule="evenodd" d="M209.944 46.263C211.641 46.9419 213.338 47.2813 214.696 47.2813C215.375 47.2813 216.054 47.2814 216.733 46.9419C219.449 46.263 221.825 44.5656 222.843 42.1894C223.862 39.4737 223.183 36.7581 222.504 35.0608C221.485 31.3268 218.43 28.9505 214.696 29.29C210.283 29.6294 205.87 33.703 205.191 38.116C204.852 39.8133 205.191 41.1711 205.87 42.5289C206.549 44.2262 207.907 45.2446 209.944 46.263Z" fill="white"></path>
<path fill-rule="evenodd" clip-rule="evenodd" d="M307.368 80.887C309.066 82.2449 311.442 82.9237 313.818 83.2632C314.158 83.2632 314.158 83.2632 314.497 83.2632C318.231 83.2632 321.965 81.5659 324.341 78.8502C327.057 75.4556 328.075 71.0427 326.378 67.3086C323.663 61.5378 315.515 61.5378 311.102 63.5745C307.708 64.9324 305.332 67.9875 304.313 71.0426C303.295 74.4372 304.653 78.5108 307.368 80.887Z" fill="white"></path>
<path fill-rule="evenodd" clip-rule="evenodd" d="M206.888 357.548C193.988 349.401 181.768 340.235 170.566 329.712C170.226 329.372 169.887 329.033 169.887 328.693C165.813 332.088 160.042 332.767 155.29 330.051C150.537 327.675 148.161 323.262 148.84 318.17C149.519 312.06 154.272 306.629 160.042 304.931C164.795 303.573 169.547 305.61 172.942 310.023C173.96 311.381 174.979 312.739 175.318 314.775C175.997 317.831 174.978 321.565 173.281 324.281C173.621 324.281 173.96 324.62 174.299 324.959C184.483 334.464 195.686 342.611 207.227 350.419C211.301 338.198 227.595 336.84 234.384 347.703C237.779 353.135 237.779 360.603 234.724 367.392C242.871 371.805 251.017 376.218 259.164 380.631C259.504 383.007 259.844 385.383 260.522 387.759C251.018 382.668 241.173 377.576 231.668 372.144C226.916 376.557 220.806 375.878 215.714 371.805C211.301 368.41 207.906 362.639 206.888 357.548Z" fill="white"></path>
<path fill-rule="evenodd" clip-rule="evenodd" d="M319.929 166.09C318.91 167.788 318.571 169.825 318.91 171.522C319.25 173.559 320.268 175.256 321.965 176.614C322.984 177.293 324.002 177.632 325.36 177.972C326.039 177.972 326.378 177.972 327.057 177.972C329.773 177.972 332.149 176.953 333.507 175.256C335.204 173.219 335.204 170.503 335.204 167.788C335.204 164.393 333.167 161.677 330.112 160.999C326.378 160.32 321.965 162.356 319.929 166.09Z" fill="white"></path>
<path fill-rule="evenodd" clip-rule="evenodd" d="M373.563 154.89C374.92 156.587 376.957 158.284 379.333 158.963C382.049 159.642 384.765 159.642 387.141 158.624C388.499 157.945 389.857 157.266 390.875 155.908C391.215 155.229 391.893 154.89 392.233 154.211C393.93 151.495 394.27 148.44 392.912 146.064C391.554 143.008 388.159 141.651 385.444 140.293C381.37 138.596 377.297 138.935 374.581 141.651C370.847 145.385 370.507 151.155 373.563 154.89Z" fill="white"></path>
</svg><style>@media (prefers-color-scheme: light) { :root { filter: none; } }
</style></svg>