<svg width="18" height="18" viewBox="0 0 18 18" fill="none" xmlns="http://www.w3.org/2000/svg">
<g clip-path="url(#clip0_2_2320)">
<path d="M0 5C0 2.23858 2.23858 0 5 0H13C15.7614 0 18 2.23858 18 5V13C18 15.7614 15.7614 18 13 18H5C2.23858 18 0 15.7614 0 13V5Z" fill="black"/>
<g clip-path="url(#clip1_2_2320)">
<path d="M7.07752 8.8949C6.19159 8.8949 5.47585 9.61063 5.48895 10.4878C5.49767 11.0508 5.80753 11.5396 6.2636 11.8124C6.10867 11.5745 6.01702 11.293 6.01265 10.9897C5.99956 10.1125 6.71529 9.39678 7.60123 9.39678C7.7758 9.39678 7.94382 9.42515 8.10093 9.47534V7.71874C7.93728 7.69473 7.76925 7.68164 7.60123 7.68164C7.5925 7.68164 7.58596 7.68164 7.57723 7.68164V8.97345C7.42011 8.92327 7.25209 8.8949 7.07752 8.8949Z" fill="#F00044"/>
<path d="M10.907 3.6272H10.8939H10.4401C10.571 4.28401 10.9398 4.85573 11.4547 5.24414C11.1165 4.79681 10.9114 4.23819 10.907 3.6272Z" fill="#F00044"/>
<path d="M13.5782 6.3002C13.4058 6.3002 13.2399 6.28275 13.0763 6.2522V7.51128C12.4828 7.51128 11.9067 7.39562 11.3655 7.16432C11.0164 7.01594 10.6912 6.82609 10.3923 6.59697L10.401 10.4789C10.3967 11.3518 10.0519 12.1701 9.42779 12.7876C8.91936 13.2895 8.27564 13.6103 7.57736 13.7128C7.4137 13.7368 7.24568 13.7499 7.07766 13.7499C6.33138 13.7499 5.62001 13.5077 5.04175 13.0604C5.10721 13.1389 5.17704 13.2153 5.25341 13.2895C5.88186 13.9092 6.71543 14.2518 7.60355 14.2518C7.77157 14.2518 7.93959 14.2387 8.10325 14.2147C8.80153 14.1122 9.44525 13.7914 9.95368 13.2895C10.5778 12.672 10.9225 11.8537 10.9269 10.9808L10.8942 7.09886C11.1909 7.32798 11.5161 7.52 11.8674 7.66621C12.4107 7.89533 12.9868 8.01316 13.5782 8.01316" fill="#F00044"/>
<path d="M5.2466 8.64825C5.8685 8.03071 6.69552 7.68812 7.5771 7.68157V7.21678C7.41344 7.19278 7.24542 7.17969 7.07739 7.17969C6.18709 7.17969 5.35134 7.52228 4.7229 8.14636C4.10536 8.75954 3.75186 9.59747 3.75404 10.4681C3.75404 11.3453 4.10099 12.168 4.72726 12.7899C4.82764 12.8881 4.9302 12.9797 5.0393 13.0627C4.54614 12.4757 4.27775 11.7425 4.27556 10.97C4.27775 10.0994 4.62907 9.26142 5.2466 8.64825Z" fill="#08FFF9"/>
<path d="M13.0763 6.25227V5.7853H13.0719C12.4653 5.7853 11.9067 5.58455 11.4572 5.24414C11.8478 5.75912 12.4195 6.12571 13.0763 6.25227Z" fill="#08FFF9"/>
<path d="M7.51196 12.5345C7.71926 12.5454 7.91783 12.5171 8.10113 12.4581C8.73394 12.2508 9.19 11.6617 9.19 10.9678L9.19218 8.37104V3.62713H10.4403C10.4076 3.46347 10.3902 3.29763 10.388 3.12524H8.66848V7.86697L8.66629 10.4637C8.66629 11.1576 8.21023 11.7468 7.57742 11.9541C7.39413 12.0152 7.19555 12.0435 6.98825 12.0304C6.72422 12.0152 6.47764 11.9366 6.26379 11.81C6.53219 12.2247 6.99044 12.5061 7.51196 12.5345Z" fill="#08FFF9"/>
<path d="M7.57707 13.7129C8.27535 13.6104 8.91907 13.2896 9.4275 12.7877C10.0516 12.1702 10.3964 11.3519 10.4007 10.479L10.392 6.59705C10.6888 6.82617 11.0139 7.0182 11.3652 7.1644C11.9086 7.39352 12.4846 7.51136 13.076 7.51136V6.25228C12.4192 6.12572 11.8475 5.75912 11.4569 5.24414C10.9419 4.85573 10.5709 4.28401 10.4422 3.6272H9.19184V8.36893L9.18965 10.9656C9.18965 11.6596 8.73359 12.2487 8.10078 12.456C7.91748 12.5171 7.71891 12.5455 7.51161 12.5324C6.9879 12.504 6.53184 12.2225 6.26344 11.8101C5.80738 11.5395 5.49752 11.0486 5.48879 10.4856C5.4757 9.60837 6.19143 8.89263 7.07737 8.89263C7.25194 8.89263 7.41996 8.921 7.57707 8.97119V7.67938C6.6955 7.68593 5.86848 8.02852 5.24658 8.64605C4.62904 9.25923 4.27554 10.0972 4.27772 10.9656C4.27772 11.7381 4.54612 12.4713 5.04146 13.0583C5.6219 13.5056 6.33109 13.7478 7.07737 13.7478C7.24539 13.75 7.41341 13.7369 7.57707 13.7129Z" fill="white"/>
</g>
</g>
<defs>
<clipPath id="clip0_2_2320">
<path d="M0 5C0 2.23858 2.23858 0 5 0H13C15.7614 0 18 2.23858 18 5V13C18 15.7614 15.7614 18 13 18H5C2.23858 18 0 15.7614 0 13V5Z" fill="white"/>
</clipPath>
<clipPath id="clip1_2_2320">
<rect width="11.1724" height="11.1724" fill="white" transform="translate(3.10339 3.10352)"/>
</clipPath>
</defs>
</svg>
