<svg width="18" height="18" viewBox="0 0 18 18" fill="none" xmlns="http://www.w3.org/2000/svg">
<path d="M0 5C0 2.23858 2.23858 0 5 0H13C15.7614 0 18 2.23858 18 5V13C18 15.7614 15.7614 18 13 18H5C2.23858 18 0 15.7614 0 13V5Z" fill="#2787F5"/>
<path d="M12.685 9.47863C12.5043 9.25052 12.556 9.14904 12.685 8.94515C12.6873 8.94282 14.1783 6.88244 14.332 6.1837L14.3329 6.18323C14.4092 5.92859 14.3329 5.74146 13.9637 5.74146H12.7422C12.4313 5.74146 12.2879 5.90206 12.2111 6.08175C12.2111 6.08175 11.5891 7.57047 10.7093 8.53549C10.4253 8.81433 10.2941 8.90371 10.139 8.90371C10.0627 8.90371 9.944 8.81434 9.944 8.5597V6.18323C9.944 5.87785 9.85694 5.74146 9.59951 5.74146H7.67879C7.48374 5.74146 7.36782 5.8839 7.36782 6.01658C7.36782 6.30613 7.80774 6.3727 7.85336 7.18735V8.95492C7.85336 9.34223 7.78306 9.41346 7.62712 9.41346C7.21187 9.41346 6.20403 7.91868 5.60677 6.2079C5.4862 5.87599 5.36843 5.74192 5.05513 5.74192H3.83315C3.48448 5.74192 3.41418 5.90252 3.41418 6.08221C3.41418 6.3997 3.82943 7.97827 5.34515 10.0638C6.35532 11.4873 7.77794 12.2587 9.07208 12.2587C9.84996 12.2587 9.94493 12.0874 9.94493 11.7927C9.94493 10.4325 9.87463 10.304 10.2643 10.304C10.4449 10.304 10.7559 10.3934 11.4821 11.08C12.3121 11.8942 12.4485 12.2587 12.9131 12.2587H14.1346C14.4828 12.2587 14.6592 12.0874 14.5577 11.7494C14.3254 11.0386 12.7557 9.57639 12.685 9.47863Z" fill="white"/>
</svg>
