<svg width="18" height="18" viewBox="0 0 18 18" fill="none" xmlns="http://www.w3.org/2000/svg">
<path d="M0 5C0 2.23858 2.23858 0 5 0H13C15.7614 0 18 2.23858 18 5V13C18 15.7614 15.7614 18 13 18H5C2.23858 18 0 15.7614 0 13V5Z" fill="url(#paint0_linear_2_2311)"/>
<path d="M15.1743 6.44267C15.1452 5.78307 15.0386 5.32961 14.8858 4.93667C14.7281 4.51959 14.4856 4.14617 14.1679 3.83574C13.8575 3.52048 13.4816 3.27552 13.0693 3.12035C12.6741 2.96755 12.223 2.86089 11.5634 2.83181C10.8989 2.80026 10.688 2.79297 9.00256 2.79297C7.31715 2.79297 7.10619 2.80026 6.44413 2.82934C5.78454 2.85843 5.33107 2.96519 4.93823 3.11789C4.52105 3.27552 4.14763 3.51802 3.8372 3.83574C3.52195 4.14617 3.27707 4.52205 3.12182 4.93431C2.96902 5.32961 2.86235 5.78061 2.83327 6.44021C2.80173 7.10473 2.79443 7.31569 2.79443 9.0011C2.79443 10.6865 2.80173 10.8975 2.83081 11.5595C2.85989 12.2191 2.96665 12.6726 3.11945 13.0655C3.27708 13.4826 3.52195 13.856 3.8372 14.1665C4.14763 14.4817 4.52351 14.7267 4.93577 14.8818C5.33107 15.0346 5.78207 15.1413 6.44176 15.1704C7.10373 15.1996 7.31478 15.2068 9.00019 15.2068C10.6856 15.2068 10.8966 15.1996 11.5586 15.1704C12.2182 15.1413 12.6717 15.0346 13.0645 14.8818C13.8988 14.5593 14.5584 13.8997 14.8809 13.0655C15.0336 12.6702 15.1404 12.2191 15.1695 11.5595C15.1986 10.8975 15.2058 10.6865 15.2058 9.0011C15.2058 7.31569 15.2034 7.10473 15.1743 6.44267ZM14.0564 11.511C14.0297 12.1173 13.9279 12.4447 13.843 12.6629C13.6344 13.2037 13.2052 13.6329 12.6644 13.8415C12.4461 13.9264 12.1164 14.0282 11.5125 14.0549C10.8577 14.084 10.6613 14.0912 9.00502 14.0912C7.34869 14.0912 7.14986 14.084 6.49746 14.0549C5.8912 14.0282 5.56382 13.9264 5.34557 13.8415C5.07644 13.7421 4.83147 13.5844 4.63264 13.3783C4.42651 13.177 4.26888 12.9345 4.16942 12.6654C4.08454 12.4471 3.98271 12.1173 3.95609 11.5135C3.92691 10.8587 3.91971 10.6623 3.91971 9.00593C3.91971 7.3496 3.92691 7.15076 3.95609 6.49846C3.98271 5.8922 4.08454 5.56482 4.16942 5.34657C4.26888 5.07735 4.42651 4.83247 4.6351 4.63354C4.83631 4.42741 5.07881 4.26979 5.34803 4.17042C5.56628 4.08554 5.89613 3.98371 6.49993 3.95699C7.15469 3.92791 7.35116 3.92062 9.00739 3.92062C10.6662 3.92062 10.8626 3.92791 11.5149 3.95699C12.1212 3.98371 12.4486 4.08554 12.6668 4.17042C12.936 4.26979 13.1809 4.42741 13.3798 4.63354C13.5859 4.83484 13.7435 5.07735 13.843 5.34657C13.9279 5.56482 14.0297 5.89457 14.0564 6.49846C14.0855 7.15323 14.0928 7.3496 14.0928 9.00593C14.0928 10.6623 14.0855 10.8563 14.0564 11.511Z" fill="white"/>
<path d="M9.00348 5.81213C7.24295 5.81213 5.81454 7.24044 5.81454 9.00107C5.81454 10.7617 7.24295 12.19 9.00348 12.19C10.7641 12.19 12.1924 10.7617 12.1924 9.00107C12.1924 7.24044 10.7641 5.81213 9.00348 5.81213ZM9.00348 11.0697C7.86134 11.0697 6.93489 10.1433 6.93489 9.00107C6.93489 7.85883 7.86134 6.93248 9.00348 6.93248C10.1457 6.93248 11.0721 7.85883 11.0721 9.00107C11.0721 10.1433 10.1457 11.0697 9.00348 11.0697Z" fill="white"/>
<path d="M13.0634 5.68603C13.0634 6.09715 12.7301 6.4305 12.3189 6.4305C11.9078 6.4305 11.5744 6.09715 11.5744 5.68603C11.5744 5.27481 11.9078 4.94155 12.3189 4.94155C12.7301 4.94155 13.0634 5.27481 13.0634 5.68603Z" fill="white"/>
<defs>
<linearGradient id="paint0_linear_2_2311" x1="1.20855" y1="16.8273" x2="17.8868" y2="2.38966" gradientUnits="userSpaceOnUse">
<stop stop-color="#FFDD55"/>
<stop offset="0.5" stop-color="#FF543E"/>
<stop offset="1" stop-color="#C837AB"/>
</linearGradient>
</defs>
</svg>
