<svg width="101" height="93" viewBox="0 0 101 93" fill="none" xmlns="http://www.w3.org/2000/svg">
<g filter="url(#filter0_d_2_1603)">
<path d="M41.6902 54.394H42.1039C42.1039 54.6162 42.0273 54.7791 41.8741 54.8825C41.7208 54.9821 41.4699 55.0319 41.1213 55.0319H41.0064C40.608 55.0319 40.2996 55.1181 40.0812 55.2905C39.8667 55.459 39.7594 55.7157 39.7594 56.0605V56.2559C39.8552 56.049 40.0046 55.8843 40.2076 55.7617C40.4107 55.6353 40.6348 55.5721 40.88 55.5721C41.286 55.5721 41.6212 55.708 41.8856 55.98C42.1537 56.2482 42.2878 56.5815 42.2878 56.9799C42.2878 57.3937 42.148 57.7442 41.8683 58.0315C41.5925 58.3188 41.2401 58.4625 40.811 58.4625C40.3896 58.4625 40.0391 58.3207 39.7594 58.0372C39.4798 57.7499 39.3399 57.3879 39.3399 56.9512V56.1869C39.3399 55.6927 39.4874 55.3173 39.7824 55.0606C40.0774 54.804 40.4949 54.6756 41.0351 54.6756C41.2918 54.6756 41.4642 54.6565 41.5523 54.6182C41.6442 54.576 41.6902 54.5013 41.6902 54.394ZM40.811 55.9571C40.5198 55.9571 40.2708 56.0586 40.064 56.2616C39.8571 56.4608 39.7537 56.7098 39.7537 57.0086C39.7537 57.3075 39.8552 57.5584 40.0582 57.7614C40.2613 57.9606 40.5122 58.0602 40.811 58.0602C41.106 58.0602 41.355 57.9606 41.558 57.7614C41.7611 57.5584 41.8626 57.3075 41.8626 57.0086C41.8626 56.7098 41.7591 56.4608 41.5523 56.2616C41.3454 56.0586 41.0983 55.9571 40.811 55.9571Z" fill="white"/>
<path d="M47.906 56.4742H48.8944C49.3043 56.4742 49.5954 56.5681 49.7678 56.7558C49.9441 56.9435 50.0322 57.1715 50.0322 57.4396C50.0322 57.566 50.013 57.6829 49.9747 57.7901C49.9402 57.8974 49.8828 58.0009 49.8023 58.1005C49.7219 58.1962 49.6031 58.2728 49.446 58.3303C49.2928 58.3878 49.1089 58.4165 48.8944 58.4165H47.4865V55.5433H47.906V56.4742ZM47.9003 58.0257H48.9289C49.3847 58.0257 49.6127 57.8304 49.6127 57.4396C49.6127 57.0565 49.3847 56.865 48.9289 56.865H47.9003V58.0257Z" fill="white"/>
<path d="M57.6162 55.5031C58.0223 55.5031 58.369 55.6487 58.6563 55.9398C58.9474 56.2271 59.093 56.5738 59.093 56.9799C59.093 57.386 58.9494 57.7327 58.662 58.02C58.3747 58.3073 58.0261 58.451 57.6162 58.451C57.2446 58.451 56.9209 58.3284 56.6451 58.0832C56.3692 57.838 56.2103 57.5335 56.1681 57.1695H55.6165V58.4165H55.197V55.5433H55.6165V56.7673H56.1796C56.2217 56.4072 56.3788 56.1065 56.6508 55.8651C56.9266 55.6238 57.2484 55.5031 57.6162 55.5031ZM56.8692 57.7442C57.076 57.9472 57.325 58.0487 57.6162 58.0487C57.9073 58.0487 58.1564 57.9472 58.3632 57.7442C58.5701 57.5411 58.6735 57.2864 58.6735 56.9799C58.6735 56.6734 58.5701 56.4187 58.3632 56.2156C58.1564 56.0088 57.9073 55.9053 57.6162 55.9053C57.3289 55.9053 57.0818 56.0088 56.8749 56.2156C56.668 56.4187 56.5646 56.6734 56.5646 56.9799C56.5646 57.2864 56.6661 57.5411 56.8692 57.7442Z" fill="white"/>
<path d="M65.3697 55.9398V58.4165H64.9502V55.9398H63.8986V55.5433H66.4213V55.9398H65.3697Z" fill="white"/>
<path d="M74.0566 58.4165H73.6429V56.2444L71.7293 58.4165H71.4765V55.5433H71.896V57.7154L73.8095 55.5433H74.0566V58.4165Z" fill="white"/>
<path fill-rule="evenodd" clip-rule="evenodd" d="M24.6917 56.6453L24.6332 56.7037C24.341 55.0671 23.9319 53.4889 23.5227 51.8522C22.003 45.5395 22.3537 37.6485 24.3995 31.2189C24.7502 30.0498 25.2178 28.8808 25.6854 27.7118C26.0361 28.647 26.796 29.5822 27.9066 29.5822C29.4263 29.5822 30.6538 27.9456 30.42 26.4843C30.3031 25.6075 29.777 25.1399 28.9587 24.9061C28.3157 24.7308 27.6143 24.7307 26.9713 24.8477C27.5558 23.6786 28.1403 22.5096 28.8418 21.3406C29.777 21.399 30.5953 20.9314 31.0045 20.1131C31.3552 19.4701 31.3552 18.5349 31.0045 17.8919C31.589 17.0152 32.1735 16.1968 32.8165 15.3201C32.9918 15.3785 33.1672 15.3785 33.2841 15.3785C34.1024 15.437 34.9792 15.3785 35.5637 14.794C36.7327 13.6834 36.0313 11.813 34.6285 11.2869C33.1087 10.7024 32.0566 12.0468 31.8228 13.4496C31.7643 13.8588 31.7059 14.3848 31.9397 14.7356C31.3552 15.5539 30.7707 16.3722 30.2446 17.1905C29.4847 16.7229 27.7896 16.5475 26.9713 16.9567C26.0945 17.4243 25.6854 18.6518 26.153 19.6455C26.4453 20.3469 27.0882 20.873 27.8481 21.1652C27.0882 22.5096 26.3868 23.854 25.8023 25.1983L25.6854 25.2568C25.0424 24.2631 23.9319 22.9188 22.6459 22.8018C21.6522 22.6849 20.6586 23.3864 20.3663 24.38C20.074 25.3737 20.6586 26.4843 21.5353 26.835C22.5875 27.3026 24.1072 26.7766 25.1593 26.4258C24.5164 27.9456 23.9318 29.5238 23.4058 31.0435C21.886 35.7781 21.3015 41.2725 21.6522 46.3578C21.0093 44.7211 20.3663 43.143 19.6064 41.5063C20.4832 41.0972 21.1262 40.2204 21.4184 39.4605C21.8276 38.4668 21.7107 37.4147 21.1262 36.5964C20.8339 36.1872 20.4248 35.9534 20.0156 36.0119C19.6064 36.0703 19.2557 36.3626 19.0219 36.8302C18.6712 37.5316 18.5543 38.2915 18.3789 39.0514C17.5606 37.4147 16.7423 35.8365 15.9824 34.1999C16.6254 34.2583 17.2684 34.083 18.0282 33.4985C18.7297 32.9724 18.9635 31.9787 18.7297 30.9266C18.5543 30.1083 18.1451 29.5238 17.5606 29.29C16.567 28.8808 15.4564 29.5822 14.9888 30.5759C14.8134 30.8681 14.755 31.1604 14.6381 31.5111C12.5338 27.0104 10.7803 22.4511 10.3711 17.4828C11.131 17.8919 12.0662 18.0088 12.8845 17.7166C14.5796 17.0736 15.3395 14.6186 13.7028 13.4496C12.826 12.8066 11.3063 12.9235 10.3711 13.3912C10.5465 11.5792 10.8972 9.82561 11.5986 8.07207C11.7739 8.13052 11.8908 8.18898 12.0662 8.18898C12.7676 8.18898 13.6444 7.66292 13.9951 7.0784C14.3458 6.49389 14.2874 5.85093 13.8782 5.38332C13.3521 4.74035 12.1246 4.50653 11.3063 4.85724C10.6634 5.1495 10.3127 5.67557 10.3711 6.43543C10.3711 6.78614 10.5464 7.13686 10.7802 7.42912C8.79289 12.1052 9.0267 17.1321 9.90347 21.399C9.0267 20.9314 7.85767 21.399 7.27315 21.9251C6.57173 22.5096 6.04569 23.7955 6.45485 24.6723C6.80556 25.4906 7.85767 25.8998 8.73444 25.8998C9.43586 25.8998 10.488 25.666 10.8972 24.9646C11.5986 27.1273 12.4754 29.29 13.469 31.3358C12.943 30.8097 12.3584 30.3421 11.7739 30.1083C10.8387 29.816 9.78657 29.8745 9.0267 30.459C8.14992 31.1019 7.74076 32.271 8.14992 33.2062C8.67599 34.4921 10.6049 35.1936 11.9493 35.1936C13.0598 35.1936 14.0536 34.726 14.755 33.8492C15.8655 36.0704 17.0345 38.2915 18.0867 40.5711C17.6191 40.3958 17.2099 40.1619 16.7423 40.045C15.924 39.8112 15.1641 39.6943 14.3458 39.7528C13.9951 39.7528 13.6444 39.8112 13.2937 39.9281C12.4754 40.2788 12.0662 41.1556 11.8908 41.7986C11.7155 42.4415 11.657 43.4352 12.1247 44.1951C12.5923 44.9549 13.5275 45.3641 14.4042 45.3057C16.2747 45.2472 17.9698 43.4937 18.7297 41.9155C20.3079 45.2472 21.5353 48.6374 22.529 52.2029C22.529 52.2614 22.529 52.3198 22.5874 52.3198C24.8671 60.6784 25.51 69.4461 24.3995 78.0385L25.3931 78.1554C26.2114 72.018 26.153 65.7637 25.2178 59.6847C25.1009 59.2171 24.984 58.808 24.984 58.2819C24.7502 57.7558 24.6917 57.2298 24.6917 56.6453Z" fill="white"/>
<path fill-rule="evenodd" clip-rule="evenodd" d="M5.81179 56.8203C5.57799 57.3463 5.46108 57.8724 5.51953 58.3985C5.57799 58.983 5.92869 59.509 6.39631 59.8597C6.68856 60.0351 6.98083 60.2104 7.38999 60.2689C7.56534 60.3273 7.74071 60.3273 7.91607 60.3273C8.67594 60.3273 9.37736 60.0351 9.78652 59.509C10.2541 58.866 10.3126 58.0477 10.3126 57.3463C10.3126 56.2942 9.72805 55.5928 8.85128 55.359C7.68225 55.1252 6.33785 55.7681 5.81179 56.8203Z" fill="white"/>
<path fill-rule="evenodd" clip-rule="evenodd" d="M7.15618 10.2344C7.15618 10.1175 7.15615 9.94211 7.0977 9.76676C6.92235 9.00689 6.22094 8.42236 5.46107 8.42236C4.8181 8.42236 4.23357 8.83153 4.05822 9.4745C3.88286 10.059 4.11668 10.7604 4.5843 11.1111C4.87655 11.3449 5.22727 11.4618 5.57798 11.4618C5.81178 11.4618 6.0456 11.4034 6.2794 11.2865C6.80547 11.1696 7.09772 10.7604 7.15618 10.2344Z" fill="white"/>
<path fill-rule="evenodd" clip-rule="evenodd" d="M16.0409 2.92811C16.3331 3.04502 16.6254 3.10346 16.8592 3.10346C16.9761 3.10346 17.093 3.10347 17.2099 3.04502C17.6775 2.92812 18.0867 2.63585 18.2621 2.22669C18.4374 1.75908 18.3205 1.29148 18.2036 0.999221C18.0282 0.356254 17.5022 -0.0529133 16.8592 0.00553821C16.0993 0.0639897 15.3395 0.765411 15.2226 1.52528C15.1641 1.81754 15.2226 2.05134 15.3395 2.28514C15.4564 2.5774 15.6902 2.75276 16.0409 2.92811Z" fill="white"/>
<path fill-rule="evenodd" clip-rule="evenodd" d="M32.8164 8.89001C33.1086 9.12382 33.5178 9.24071 33.927 9.29916C33.9854 9.29916 33.9854 9.29916 34.0439 9.29916C34.6869 9.29916 35.3298 9.00691 35.739 8.5393C36.2066 7.95479 36.3819 7.19492 36.0897 6.55195C35.6221 5.55828 34.2192 5.55827 33.4594 5.90898C32.8749 6.14279 32.4657 6.66884 32.2903 7.19491C32.115 7.77942 32.3488 8.48085 32.8164 8.89001Z" fill="white"/>
<path fill-rule="evenodd" clip-rule="evenodd" d="M15.5147 56.5281C13.2935 55.1252 11.1893 53.547 9.26037 51.735C9.20192 51.6766 9.14346 51.6182 9.14346 51.5597C8.44204 52.1442 7.44838 52.2611 6.63006 51.7935C5.81174 51.3843 5.40256 50.6245 5.51946 49.7477C5.63637 48.6956 6.45472 47.7604 7.44839 47.4681C8.26671 47.2343 9.08503 47.585 9.66954 48.3449C9.84489 48.5787 10.0203 48.8125 10.0787 49.1632C10.1956 49.6892 10.0202 50.3322 9.72798 50.7998C9.78643 50.7998 9.84487 50.8583 9.90332 50.9167C11.6569 52.5534 13.5858 53.9562 15.5731 55.3006C16.2745 53.1963 19.0802 52.9625 20.2492 54.833C20.8338 55.7682 20.8338 57.0541 20.3077 58.2231C21.7106 58.983 23.1134 59.7429 24.5162 60.5028C24.5746 60.9119 24.6331 61.3211 24.75 61.7302C23.1134 60.8535 21.4183 59.9767 19.7816 59.0415C18.9633 59.8013 17.9112 59.6845 17.0344 58.983C16.2745 58.3985 15.69 57.4048 15.5147 56.5281Z" fill="white"/>
<path fill-rule="evenodd" clip-rule="evenodd" d="M57.366 6.78613C51.8131 6.78613 46.4356 7.95516 41.4087 10.2348L41.8763 11.3453C46.7278 9.12419 51.93 8.01362 57.366 8.01362C78.0578 8.01362 94.9503 24.8476 94.9503 45.5979C94.9503 66.2897 78.1163 83.1822 57.366 83.1822C46.7863 83.1822 36.6157 78.6814 29.4846 70.7905L28.6078 71.6088C35.9727 79.7336 46.4356 84.4097 57.366 84.4097C78.7592 84.4097 96.1193 67.0496 96.1193 45.6564C96.1193 24.2047 78.7008 6.78613 57.366 6.78613Z" fill="white"/>
<path fill-rule="evenodd" clip-rule="evenodd" d="M34.9791 23.5612C34.8038 23.8534 34.7453 24.2041 34.8038 24.4964C34.8622 24.8471 35.0376 25.1394 35.3298 25.3732C35.5052 25.4901 35.6805 25.5485 35.9143 25.607C36.0312 25.607 36.0897 25.607 36.2066 25.607C36.6742 25.607 37.0834 25.4316 37.3172 25.1394C37.6094 24.7886 37.6094 24.321 37.6094 23.8534C37.6094 23.2689 37.2587 22.8013 36.7327 22.6844C36.0897 22.5675 35.3298 22.9182 34.9791 23.5612Z" fill="white"/>
<path fill-rule="evenodd" clip-rule="evenodd" d="M44.2143 21.6325C44.4482 21.9247 44.7989 22.217 45.208 22.3339C45.6756 22.4508 46.1432 22.4508 46.5524 22.2754C46.7862 22.1585 47.02 22.0416 47.1954 21.8078C47.2538 21.6909 47.3707 21.6325 47.4292 21.5156C47.7214 21.048 47.7799 20.5219 47.5461 20.1127C47.3123 19.5867 46.7278 19.3529 46.2602 19.1191C45.5587 18.8268 44.8573 18.8853 44.3897 19.3529C43.7467 19.9958 43.6883 20.9895 44.2143 21.6325Z" fill="white"/>
<path d="M46.0713 37.9156C45.5207 37.9462 45.1155 38.0074 44.8555 38.0991C44.6108 38.1909 44.4426 38.3667 44.3508 38.6267C44.2591 38.8867 44.2132 39.3072 44.2132 39.8884V51.2662C44.2132 51.8473 44.2591 52.2679 44.3508 52.5279C44.4426 52.7878 44.6108 52.9637 44.8555 53.0555C45.1155 53.1472 45.5207 53.2084 46.0713 53.239V53.6978C45.3678 53.6519 44.3967 53.6289 43.158 53.6289C41.8428 53.6289 40.8641 53.6519 40.2218 53.6978V53.239C40.7723 53.2084 41.1699 53.1472 41.4146 53.0555C41.6746 52.9637 41.8504 52.7878 41.9422 52.5279C42.034 52.2679 42.0798 51.8473 42.0798 51.2662V38.9708L36.5515 53.8125H36.1845L30.4038 38.9249V51.0368C30.4038 51.6332 30.4497 52.0767 30.5414 52.3673C30.6485 52.6578 30.8473 52.8719 31.1379 53.0096C31.4284 53.1319 31.8796 53.2084 32.4913 53.239V53.6978C31.9407 53.6519 31.1608 53.6289 30.1515 53.6289C29.2339 53.6289 28.5228 53.6519 28.0181 53.6978V53.239C28.5534 53.2084 28.951 53.1319 29.211 53.0096C29.4709 52.8719 29.6468 52.6578 29.7386 52.3673C29.8303 52.0614 29.8762 51.6179 29.8762 51.0368V39.8884C29.8762 39.3072 29.8303 38.8867 29.7386 38.6267C29.6468 38.3667 29.4709 38.1909 29.211 38.0991C28.9663 38.0074 28.5687 37.9462 28.0181 37.9156V37.4568C28.5228 37.5027 29.2339 37.5256 30.1515 37.5256C30.9467 37.5256 31.5966 37.5027 32.1013 37.4568L37.1479 50.7386L42.0798 37.5256H43.158C44.3967 37.5256 45.3678 37.5027 46.0713 37.4568V37.9156Z" fill="white"/>
<path d="M55.4598 50.99C55.4598 51.537 55.4966 52.1577 55.5702 52.8521C54.8864 52.8205 53.7345 52.8047 52.1143 52.8047C50.1681 52.8047 48.6953 52.8205 47.6959 52.8521V52.5364C48.0746 52.5154 48.3481 52.4733 48.5164 52.4102C48.6953 52.3471 48.8163 52.2261 48.8794 52.0473C48.9425 51.8684 48.9741 51.5791 48.9741 51.1793V44.9303C48.9741 44.5306 48.9425 44.2413 48.8794 44.0624C48.8163 43.8836 48.6953 43.7626 48.5164 43.6995C48.3481 43.6363 48.0746 43.5943 47.6959 43.5732V43.2576C48.6953 43.2892 50.1681 43.305 52.1143 43.305C53.5872 43.305 54.6339 43.2892 55.2546 43.2576C55.181 43.8888 55.1442 44.4569 55.1442 44.9619C55.1442 45.3722 55.16 45.6983 55.1915 45.9403H54.8286C54.7549 45.0776 54.5708 44.478 54.2762 44.1413C53.9922 43.7941 53.5241 43.6206 52.8718 43.6206H51.7198C51.3411 43.6206 51.0623 43.6521 50.8835 43.7152C50.7152 43.7678 50.5994 43.8836 50.5363 44.0624C50.4732 44.2413 50.4416 44.5306 50.4416 44.9303V47.8655H51.7514C52.088 47.8655 52.3458 47.7813 52.5246 47.613C52.7035 47.4341 52.8245 47.2448 52.8876 47.0449C52.9507 46.8345 53.0086 46.5715 53.0612 46.2559H53.4241C53.3926 46.6136 53.3768 47.0028 53.3768 47.4236V48.0233C53.3768 48.4336 53.4083 49.0227 53.4715 49.7907H53.1085C53.0454 49.2857 52.9244 48.8912 52.7456 48.6071C52.5667 48.3231 52.2353 48.1811 51.7514 48.1811H50.4416V51.1793C50.4416 51.5791 50.4732 51.8684 50.5363 52.0473C50.5994 52.2261 50.7152 52.3471 50.8835 52.4102C51.0623 52.4628 51.3411 52.4891 51.7198 52.4891H52.8718C53.3978 52.4891 53.8134 52.4049 54.1184 52.2366C54.4235 52.0683 54.655 51.8 54.8128 51.4318C54.9706 51.0531 55.081 50.5271 55.1442 49.8538H55.5071C55.4756 50.1378 55.4598 50.5166 55.4598 50.99Z" fill="white"/>
<path d="M66.0455 43.5732C65.6668 43.5943 65.388 43.6363 65.2092 43.6995C65.0409 43.7626 64.9251 43.8836 64.862 44.0624C64.7989 44.2413 64.7673 44.5306 64.7673 44.9303V51.1793C64.7673 51.5791 64.7989 51.8684 64.862 52.0473C64.9251 52.2261 65.0409 52.3471 65.2092 52.4102C65.388 52.4733 65.6668 52.5154 66.0455 52.5364V52.8521C65.6037 52.8205 64.9251 52.8047 64.0099 52.8047C63.0315 52.8047 62.2635 52.8205 61.7059 52.8521V52.5364C62.1794 52.5154 62.5213 52.4733 62.7317 52.4102C62.9421 52.3471 63.0894 52.2261 63.1735 52.0473C63.2577 51.8684 63.2998 51.5791 63.2998 51.1793V48.6229C62.9631 48.7807 62.5633 48.9175 62.1005 49.0332C61.6376 49.1384 61.1642 49.191 60.6802 49.191C59.807 49.191 59.1232 49.0069 58.6288 48.6387C58.3447 48.4178 58.1449 48.1548 58.0291 47.8497C57.9239 47.5341 57.8713 47.0922 57.8713 46.5241V44.7252C57.8713 44.2939 57.7819 43.9993 57.6031 43.8415C57.4242 43.6732 57.1139 43.589 56.672 43.589V43.2576C57.6399 43.2997 58.2869 43.3207 58.613 43.3207C58.9076 43.3207 59.4967 43.2997 60.3804 43.2576V43.589C59.9911 43.589 59.7176 43.6732 59.5598 43.8415C59.4125 43.9993 59.3389 44.2939 59.3389 44.7252V46.8713C59.3389 47.2921 59.381 47.6288 59.4651 47.8812C59.5598 48.1337 59.7492 48.3336 60.0332 48.4809C60.3173 48.6177 60.7381 48.686 61.2957 48.686C62.0636 48.686 62.7317 48.5703 63.2998 48.3389V44.9303C63.2998 44.5306 63.2682 44.2413 63.2051 44.0624C63.142 43.8836 63.021 43.7626 62.8421 43.6995C62.6738 43.6363 62.4003 43.5943 62.0216 43.5732V43.2576C62.4634 43.2892 63.1262 43.305 64.0099 43.305C64.883 43.305 65.5616 43.2892 66.0455 43.2576V43.5732Z" fill="white"/>
<path d="M76.1357 43.2576C76.0621 43.952 76.0252 44.5726 76.0252 45.1197C76.0252 45.6667 76.041 46.0981 76.0726 46.4137H75.7096C75.6465 45.6773 75.5466 45.1144 75.4098 44.7252C75.273 44.3359 75.0521 44.0572 74.747 43.8888C74.4419 43.71 74.0054 43.6206 73.4373 43.6206H72.4273V51.0215C72.4273 51.4634 72.4694 51.7843 72.5536 51.9841C72.6377 52.184 72.785 52.3208 72.9954 52.3944C73.2058 52.4681 73.5477 52.5154 74.0211 52.5364V52.8521C73.4741 52.8205 72.7008 52.8047 71.7014 52.8047C70.6494 52.8047 69.8709 52.8205 69.3659 52.8521V52.5364C69.8393 52.5154 70.1813 52.4681 70.3917 52.3944C70.6021 52.3208 70.7494 52.184 70.8335 51.9841C70.9177 51.7843 70.9597 51.4634 70.9597 51.0215V43.6206H69.9498C69.3817 43.6206 68.9451 43.71 68.64 43.8888C68.335 44.0572 68.114 44.3359 67.9773 44.7252C67.8405 45.1144 67.7406 45.6773 67.6774 46.4137H67.3145C67.3461 46.077 67.3618 45.6457 67.3618 45.1197C67.3618 44.5726 67.325 43.952 67.2514 43.2576C68.1245 43.2892 69.6079 43.305 71.7014 43.305C73.7844 43.305 75.2625 43.2892 76.1357 43.2576Z" fill="white"/>
<path d="M84.6403 51.5265C84.9243 52.1788 85.2873 52.5154 85.7291 52.5364V52.8521C85.3083 52.8205 84.7455 52.8047 84.0406 52.8047C83.1359 52.8047 82.4626 52.8205 82.0208 52.8521V52.5364C82.41 52.5154 82.6941 52.4628 82.8729 52.3786C83.0623 52.2945 83.157 52.1525 83.157 51.9526C83.157 51.7842 83.0833 51.537 82.936 51.2109L82.1312 49.4119H78.2966L77.7601 50.5955C77.5812 51.0058 77.4918 51.3424 77.4918 51.6054C77.4918 51.8789 77.5865 52.0946 77.7759 52.2524C77.9757 52.3997 78.2914 52.4944 78.7227 52.5364V52.8521C78.4071 52.8205 77.9284 52.8047 77.2867 52.8047C76.6449 52.8047 76.1873 52.8205 75.9138 52.8521V52.5364C76.1978 52.4628 76.4398 52.305 76.6397 52.063C76.8396 51.8106 77.0289 51.4792 77.2078 51.0689L80.6952 43.1787H80.9477L84.6403 51.5265ZM82.005 49.0963L80.2218 45.0881L78.4229 49.0963H82.005Z" fill="white"/>
</g>
<defs>
<filter id="filter0_d_2_1603" x="0" y="0" width="100.45" height="92.4097" filterUnits="userSpaceOnUse" color-interpolation-filters="sRGB">
<feFlood flood-opacity="0" result="BackgroundImageFix"/>
<feColorMatrix in="SourceAlpha" type="matrix" values="0 0 0 0 0 0 0 0 0 0 0 0 0 0 0 0 0 0 127 0" result="hardAlpha"/>
<feOffset dy="4"/>
<feGaussianBlur stdDeviation="2"/>
<feComposite in2="hardAlpha" operator="out"/>
<feColorMatrix type="matrix" values="0 0 0 0 0 0 0 0 0 0 0 0 0 0 0 0 0 0 0.25 0"/>
<feBlend mode="normal" in2="BackgroundImageFix" result="effect1_dropShadow_2_1603"/>
<feBlend mode="normal" in="SourceGraphic" in2="effect1_dropShadow_2_1603" result="shape"/>
</filter>
</defs>
</svg>
