<svg width="93" height="85" viewBox="0 0 93 85" fill="none" xmlns="http://www.w3.org/2000/svg">
<path d="M37.6902 54.394H38.1039C38.1039 54.6162 38.0273 54.7791 37.8741 54.8825C37.7208 54.9821 37.4699 55.0319 37.1213 55.0319H37.0064C36.608 55.0319 36.2996 55.1181 36.0812 55.2905C35.8667 55.459 35.7594 55.7157 35.7594 56.0605V56.2559C35.8552 56.049 36.0046 55.8843 36.2076 55.7617C36.4107 55.6353 36.6348 55.5721 36.88 55.5721C37.286 55.5721 37.6212 55.7081 37.8856 55.98C38.1537 56.2482 38.2878 56.5815 38.2878 56.9799C38.2878 57.3937 38.148 57.7442 37.8683 58.0315C37.5925 58.3188 37.2401 58.4625 36.811 58.4625C36.3896 58.4625 36.0391 58.3207 35.7594 58.0372C35.4798 57.7499 35.3399 57.3879 35.3399 56.9512V56.1869C35.3399 55.6927 35.4874 55.3173 35.7824 55.0606C36.0774 54.804 36.4949 54.6756 37.0351 54.6756C37.2918 54.6756 37.4642 54.6565 37.5523 54.6182C37.6442 54.576 37.6902 54.5013 37.6902 54.394ZM36.811 55.9571C36.5198 55.9571 36.2708 56.0586 36.064 56.2616C35.8571 56.4608 35.7537 56.7098 35.7537 57.0086C35.7537 57.3075 35.8552 57.5584 36.0582 57.7614C36.2613 57.9606 36.5122 58.0602 36.811 58.0602C37.106 58.0602 37.355 57.9606 37.558 57.7614C37.7611 57.5584 37.8626 57.3075 37.8626 57.0086C37.8626 56.7098 37.7591 56.4608 37.5523 56.2616C37.3454 56.0586 37.0983 55.9571 36.811 55.9571Z" fill="white"/>
<path d="M43.906 56.4742H44.8944C45.3043 56.4742 45.5954 56.5681 45.7678 56.7558C45.9441 56.9435 46.0322 57.1715 46.0322 57.4396C46.0322 57.566 46.013 57.6829 45.9747 57.7901C45.9402 57.8974 45.8828 58.0008 45.8023 58.1005C45.7219 58.1962 45.6031 58.2728 45.446 58.3303C45.2928 58.3878 45.1089 58.4165 44.8944 58.4165H43.4865V55.5433H43.906V56.4742ZM43.9003 58.0257H44.9289C45.3847 58.0257 45.6127 57.8304 45.6127 57.4396C45.6127 57.0565 45.3847 56.865 44.9289 56.865H43.9003V58.0257Z" fill="white"/>
<path d="M53.6162 55.5031C54.0223 55.5031 54.369 55.6487 54.6563 55.9398C54.9474 56.2271 55.093 56.5738 55.093 56.9799C55.093 57.386 54.9494 57.7327 54.662 58.02C54.3747 58.3073 54.0261 58.451 53.6162 58.451C53.2446 58.451 52.9209 58.3284 52.6451 58.0832C52.3692 57.838 52.2103 57.5335 52.1681 57.1695H51.6165V58.4165H51.197V55.5433H51.6165V56.7673H52.1796C52.2217 56.4072 52.3788 56.1065 52.6508 55.8651C52.9266 55.6238 53.2484 55.5031 53.6162 55.5031ZM52.8692 57.7442C53.076 57.9472 53.325 58.0487 53.6162 58.0487C53.9073 58.0487 54.1564 57.9472 54.3632 57.7442C54.5701 57.5411 54.6735 57.2864 54.6735 56.9799C54.6735 56.6734 54.5701 56.4187 54.3632 56.2156C54.1564 56.0088 53.9073 55.9053 53.6162 55.9053C53.3289 55.9053 53.0818 56.0088 52.8749 56.2156C52.668 56.4187 52.5646 56.6734 52.5646 56.9799C52.5646 57.2864 52.6661 57.5411 52.8692 57.7442Z" fill="white"/>
<path d="M61.3697 55.9398V58.4165H60.9502V55.9398H59.8986V55.5433H62.4213V55.9398H61.3697Z" fill="white"/>
<path d="M70.0566 58.4165H69.6429V56.2444L67.7293 58.4165H67.4765V55.5433H67.896V57.7154L69.8095 55.5433H70.0566V58.4165Z" fill="white"/>
<path fill-rule="evenodd" clip-rule="evenodd" d="M20.6917 56.6453L20.6332 56.7037C20.341 55.0671 19.9319 53.4889 19.5227 51.8522C18.003 45.5395 18.3537 37.6485 20.3995 31.2189C20.7502 30.0498 21.2178 28.8808 21.6854 27.7118C22.0361 28.647 22.796 29.5822 23.9066 29.5822C25.4263 29.5822 26.6538 27.9456 26.42 26.4843C26.3031 25.6075 25.777 25.1399 24.9587 24.9061C24.3157 24.7308 23.6143 24.7307 22.9713 24.8477C23.5558 23.6786 24.1403 22.5096 24.8418 21.3406C25.777 21.399 26.5953 20.9314 27.0045 20.1131C27.3552 19.4701 27.3552 18.5349 27.0045 17.8919C27.589 17.0152 28.1735 16.1968 28.8165 15.3201C28.9918 15.3785 29.1672 15.3785 29.2841 15.3785C30.1024 15.437 30.9792 15.3785 31.5637 14.794C32.7327 13.6834 32.0313 11.813 30.6285 11.2869C29.1087 10.7024 28.0566 12.0468 27.8228 13.4496C27.7643 13.8588 27.7059 14.3848 27.9397 14.7356C27.3552 15.5539 26.7707 16.3722 26.2446 17.1905C25.4847 16.7229 23.7896 16.5475 22.9713 16.9567C22.0945 17.4243 21.6854 18.6518 22.153 19.6455C22.4453 20.3469 23.0882 20.873 23.8481 21.1652C23.0882 22.5096 22.3868 23.854 21.8023 25.1983L21.6854 25.2568C21.0424 24.2631 19.9319 22.9188 18.6459 22.8018C17.6522 22.6849 16.6586 23.3864 16.3663 24.38C16.074 25.3737 16.6586 26.4843 17.5353 26.835C18.5875 27.3026 20.1072 26.7766 21.1593 26.4258C20.5164 27.9456 19.9318 29.5238 19.4058 31.0435C17.886 35.7781 17.3015 41.2725 17.6522 46.3578C17.0093 44.7211 16.3663 43.143 15.6064 41.5063C16.4832 41.0972 17.1262 40.2204 17.4184 39.4605C17.8276 38.4668 17.7107 37.4147 17.1262 36.5964C16.8339 36.1872 16.4248 35.9534 16.0156 36.0119C15.6064 36.0703 15.2557 36.3626 15.0219 36.8302C14.6712 37.5316 14.5543 38.2915 14.3789 39.0514C13.5606 37.4147 12.7423 35.8365 11.9824 34.1999C12.6254 34.2583 13.2684 34.083 14.0282 33.4985C14.7297 32.9724 14.9635 31.9787 14.7297 30.9266C14.5543 30.1083 14.1451 29.5238 13.5606 29.29C12.567 28.8808 11.4564 29.5822 10.9888 30.5759C10.8134 30.8681 10.755 31.1604 10.6381 31.5111C8.53381 27.0104 6.78027 22.4511 6.37111 17.4828C7.13098 17.8919 8.0662 18.0088 8.88452 17.7166C10.5796 17.0736 11.3395 14.6186 9.70282 13.4496C8.82604 12.8066 7.30633 12.9235 6.37111 13.3912C6.54646 11.5792 6.89716 9.82561 7.59858 8.07207C7.77393 8.13052 7.89083 8.18898 8.06618 8.18898C8.7676 8.18898 9.64436 7.66292 9.99507 7.0784C10.3458 6.49389 10.2874 5.85093 9.8782 5.38332C9.35214 4.74035 8.12464 4.50653 7.30632 4.85724C6.66335 5.1495 6.31266 5.67557 6.37111 6.43543C6.37111 6.78614 6.54644 7.13686 6.78024 7.42912C4.79289 12.1052 5.0267 17.1321 5.90347 21.399C5.0267 20.9314 3.85767 21.399 3.27315 21.9251C2.57173 22.5096 2.04569 23.7955 2.45485 24.6723C2.80556 25.4906 3.85767 25.8998 4.73444 25.8998C5.43586 25.8998 6.48799 25.666 6.89715 24.9646C7.59857 27.1273 8.47536 29.29 9.46903 31.3358C8.94297 30.8097 8.35844 30.3421 7.77392 30.1083C6.8387 29.816 5.78657 29.8745 5.0267 30.459C4.14992 31.1019 3.74076 32.271 4.14992 33.2062C4.67599 34.4921 6.60489 35.1936 7.94927 35.1936C9.05985 35.1936 10.0536 34.726 10.755 33.8492C11.8655 36.0704 13.0345 38.2915 14.0867 40.5711C13.6191 40.3958 13.2099 40.1619 12.7423 40.045C11.924 39.8112 11.1641 39.6943 10.3458 39.7528C9.99509 39.7528 9.64439 39.8112 9.29368 39.9281C8.47536 40.2788 8.06619 41.1556 7.89083 41.7986C7.71548 42.4415 7.65704 43.4352 8.12465 44.1951C8.59227 44.9549 9.52747 45.3641 10.4042 45.3057C12.2747 45.2472 13.9698 43.4937 14.7297 41.9155C16.3079 45.2472 17.5353 48.6374 18.529 52.2029C18.529 52.2614 18.529 52.3198 18.5874 52.3198C20.8671 60.6784 21.51 69.4461 20.3995 78.0385L21.3931 78.1554C22.2114 72.018 22.153 65.7637 21.2178 59.6847C21.1009 59.2171 20.984 58.808 20.984 58.2819C20.7502 57.7558 20.6917 57.2298 20.6917 56.6453Z" fill="white"/>
<path fill-rule="evenodd" clip-rule="evenodd" d="M1.81179 56.8203C1.57799 57.3463 1.46108 57.8724 1.51953 58.3985C1.57799 58.983 1.92869 59.509 2.39631 59.8597C2.68856 60.0351 2.98083 60.2104 3.38999 60.2689C3.56534 60.3273 3.74071 60.3273 3.91607 60.3273C4.67594 60.3273 5.37736 60.0351 5.78652 59.509C6.25413 58.866 6.31256 58.0477 6.31256 57.3463C6.31256 56.2942 5.72805 55.5928 4.85128 55.359C3.68225 55.1252 2.33785 55.7681 1.81179 56.8203Z" fill="white"/>
<path fill-rule="evenodd" clip-rule="evenodd" d="M3.15618 10.2344C3.15618 10.1175 3.15615 9.94211 3.0977 9.76676C2.92235 9.00689 2.22094 8.42236 1.46107 8.42236C0.818102 8.42236 0.233573 8.83153 0.0582186 9.4745C-0.117136 10.059 0.116684 10.7604 0.584296 11.1111C0.876554 11.3449 1.22727 11.4618 1.57798 11.4618C1.81178 11.4618 2.0456 11.4034 2.2794 11.2865C2.80547 11.1696 3.09772 10.7604 3.15618 10.2344Z" fill="white"/>
<path fill-rule="evenodd" clip-rule="evenodd" d="M12.0409 2.92811C12.3331 3.04502 12.6254 3.10346 12.8592 3.10346C12.9761 3.10346 13.093 3.10347 13.2099 3.04502C13.6775 2.92812 14.0867 2.63585 14.2621 2.22669C14.4374 1.75908 14.3205 1.29148 14.2036 0.999221C14.0282 0.356254 13.5022 -0.0529133 12.8592 0.00553821C12.0993 0.0639897 11.3395 0.765411 11.2226 1.52528C11.1641 1.81754 11.2226 2.05134 11.3395 2.28514C11.4564 2.5774 11.6902 2.75276 12.0409 2.92811Z" fill="white"/>
<path fill-rule="evenodd" clip-rule="evenodd" d="M28.8164 8.89001C29.1086 9.12382 29.5178 9.24071 29.927 9.29916C29.9854 9.29916 29.9854 9.29916 30.0439 9.29916C30.6869 9.29916 31.3298 9.00691 31.739 8.5393C32.2066 7.95479 32.3819 7.19492 32.0897 6.55195C31.6221 5.55828 30.2192 5.55827 29.4594 5.90898C28.8749 6.14279 28.4657 6.66884 28.2903 7.19491C28.115 7.77942 28.3488 8.48085 28.8164 8.89001Z" fill="white"/>
<path fill-rule="evenodd" clip-rule="evenodd" d="M11.5147 56.5281C9.29353 55.1252 7.18927 53.547 5.26037 51.735C5.20192 51.6766 5.14346 51.6182 5.14346 51.5597C4.44204 52.1442 3.44838 52.2611 2.63006 51.7935C1.81174 51.3843 1.40256 50.6245 1.51946 49.7477C1.63637 48.6956 2.45472 47.7604 3.44839 47.4681C4.26671 47.2343 5.08503 47.585 5.66954 48.3449C5.84489 48.5787 6.02026 48.8125 6.07871 49.1632C6.19561 49.6892 6.02023 50.3322 5.72798 50.7998C5.78643 50.7998 5.84487 50.8583 5.90332 50.9167C7.65687 52.5534 9.58577 53.9562 11.5731 55.3006C12.2745 53.1963 15.0802 52.9625 16.2492 54.833C16.8338 55.7682 16.8338 57.0541 16.3077 58.2231C17.7106 58.983 19.1134 59.7429 20.5162 60.5028C20.5746 60.9119 20.6331 61.3211 20.75 61.7302C19.1134 60.8535 17.4183 59.9767 15.7816 59.0415C14.9633 59.8014 13.9112 59.6845 13.0344 58.983C12.2745 58.3985 11.69 57.4048 11.5147 56.5281Z" fill="white"/>
<path fill-rule="evenodd" clip-rule="evenodd" d="M53.366 6.78613C47.8131 6.78613 42.4356 7.95516 37.4087 10.2348L37.8763 11.3453C42.7278 9.12419 47.93 8.01362 53.366 8.01362C74.0578 8.01362 90.9503 24.8476 90.9503 45.5979C90.9503 66.2897 74.1163 83.1822 53.366 83.1822C42.7863 83.1822 32.6157 78.6814 25.4846 70.7905L24.6078 71.6088C31.9727 79.7336 42.4356 84.4097 53.366 84.4097C74.7592 84.4097 92.1193 67.0496 92.1193 45.6564C92.1193 24.2047 74.7008 6.78613 53.366 6.78613Z" fill="white"/>
<path fill-rule="evenodd" clip-rule="evenodd" d="M30.9791 23.5612C30.8038 23.8534 30.7453 24.2041 30.8038 24.4964C30.8622 24.8471 31.0376 25.1394 31.3298 25.3732C31.5052 25.4901 31.6805 25.5485 31.9143 25.607C32.0312 25.607 32.0897 25.607 32.2066 25.607C32.6742 25.607 33.0834 25.4316 33.3172 25.1394C33.6094 24.7886 33.6094 24.321 33.6094 23.8534C33.6094 23.2689 33.2587 22.8013 32.7327 22.6844C32.0897 22.5675 31.3298 22.9182 30.9791 23.5612Z" fill="white"/>
<path fill-rule="evenodd" clip-rule="evenodd" d="M40.2143 21.6325C40.4482 21.9247 40.7989 22.217 41.208 22.3339C41.6756 22.4508 42.1432 22.4508 42.5524 22.2754C42.7862 22.1585 43.02 22.0416 43.1954 21.8078C43.2538 21.6909 43.3707 21.6325 43.4292 21.5156C43.7214 21.048 43.7799 20.5219 43.5461 20.1127C43.3123 19.5867 42.7278 19.3529 42.2602 19.1191C41.5587 18.8268 40.8573 18.8853 40.3897 19.3529C39.7467 19.9958 39.6883 20.9895 40.2143 21.6325Z" fill="white"/>
<path d="M42.0713 37.9156C41.5207 37.9462 41.1155 38.0074 40.8555 38.0991C40.6108 38.1909 40.4426 38.3667 40.3508 38.6267C40.2591 38.8867 40.2132 39.3072 40.2132 39.8884V51.2662C40.2132 51.8473 40.2591 52.2679 40.3508 52.5279C40.4426 52.7878 40.6108 52.9637 40.8555 53.0555C41.1155 53.1472 41.5207 53.2084 42.0713 53.239V53.6978C41.3678 53.6519 40.3967 53.6289 39.158 53.6289C37.8428 53.6289 36.8641 53.6519 36.2218 53.6978V53.239C36.7723 53.2084 37.1699 53.1472 37.4146 53.0555C37.6746 52.9637 37.8505 52.7878 37.9422 52.5279C38.034 52.2679 38.0798 51.8473 38.0798 51.2662V38.9708L32.5515 53.8125H32.1845L26.4038 38.9249V51.0368C26.4038 51.6332 26.4497 52.0767 26.5414 52.3673C26.6485 52.6578 26.8473 52.8719 27.1379 53.0096C27.4284 53.1319 27.8796 53.2084 28.4913 53.239V53.6978C27.9407 53.6519 27.1608 53.6289 26.1515 53.6289C25.2339 53.6289 24.5228 53.6519 24.0181 53.6978V53.239C24.5534 53.2084 24.951 53.1319 25.211 53.0096C25.4709 52.8719 25.6468 52.6578 25.7386 52.3673C25.8303 52.0614 25.8762 51.6179 25.8762 51.0368V39.8884C25.8762 39.3072 25.8303 38.8867 25.7386 38.6267C25.6468 38.3667 25.4709 38.1909 25.211 38.0991C24.9663 38.0074 24.5687 37.9462 24.0181 37.9156V37.4568C24.5228 37.5027 25.2339 37.5256 26.1515 37.5256C26.9467 37.5256 27.5966 37.5027 28.1013 37.4568L33.1479 50.7386L38.0798 37.5256H39.158C40.3967 37.5256 41.3678 37.5027 42.0713 37.4568V37.9156Z" fill="white"/>
<path d="M51.4598 50.99C51.4598 51.537 51.4966 52.1577 51.5702 52.8521C50.8864 52.8205 49.7345 52.8047 48.1143 52.8047C46.1681 52.8047 44.6953 52.8205 43.6959 52.8521V52.5364C44.0746 52.5154 44.3481 52.4733 44.5164 52.4102C44.6953 52.3471 44.8163 52.2261 44.8794 52.0473C44.9425 51.8684 44.9741 51.5791 44.9741 51.1793V44.9303C44.9741 44.5306 44.9425 44.2413 44.8794 44.0624C44.8163 43.8836 44.6953 43.7626 44.5164 43.6995C44.3481 43.6363 44.0746 43.5943 43.6959 43.5732V43.2576C44.6953 43.2892 46.1681 43.305 48.1143 43.305C49.5872 43.305 50.6339 43.2892 51.2546 43.2576C51.181 43.8888 51.1442 44.4569 51.1442 44.9619C51.1442 45.3722 51.1599 45.6983 51.1915 45.9403H50.8286C50.7549 45.0776 50.5708 44.478 50.2762 44.1413C49.9922 43.7941 49.5241 43.6206 48.8718 43.6206H47.7198C47.3411 43.6206 47.0623 43.6521 46.8835 43.7152C46.7152 43.7678 46.5994 43.8836 46.5363 44.0624C46.4732 44.2413 46.4416 44.5306 46.4416 44.9303V47.8655H47.7514C48.088 47.8655 48.3458 47.7813 48.5246 47.613C48.7035 47.4341 48.8245 47.2448 48.8876 47.0449C48.9507 46.8345 49.0086 46.5715 49.0612 46.2559H49.4241C49.3925 46.6136 49.3768 47.0028 49.3768 47.4236V48.0233C49.3768 48.4336 49.4083 49.0227 49.4715 49.7907H49.1085C49.0454 49.2857 48.9244 48.8912 48.7456 48.6071C48.5667 48.3231 48.2353 48.1811 47.7514 48.1811H46.4416V51.1793C46.4416 51.5791 46.4732 51.8684 46.5363 52.0473C46.5994 52.2261 46.7152 52.3471 46.8835 52.4102C47.0623 52.4628 47.3411 52.4891 47.7198 52.4891H48.8718C49.3978 52.4891 49.8134 52.4049 50.1184 52.2366C50.4235 52.0683 50.655 51.8 50.8128 51.4318C50.9706 51.0531 51.081 50.5271 51.1442 49.8538H51.5071C51.4756 50.1378 51.4598 50.5166 51.4598 50.99Z" fill="white"/>
<path d="M62.0455 43.5732C61.6668 43.5943 61.388 43.6363 61.2092 43.6995C61.0409 43.7626 60.9251 43.8836 60.862 44.0624C60.7989 44.2413 60.7673 44.5306 60.7673 44.9303V51.1793C60.7673 51.5791 60.7989 51.8684 60.862 52.0473C60.9251 52.2261 61.0409 52.3471 61.2092 52.4102C61.388 52.4733 61.6668 52.5154 62.0455 52.5364V52.8521C61.6037 52.8205 60.9251 52.8047 60.0099 52.8047C59.0315 52.8047 58.2635 52.8205 57.7059 52.8521V52.5364C58.1794 52.5154 58.5213 52.4733 58.7317 52.4102C58.9421 52.3471 59.0894 52.2261 59.1735 52.0473C59.2577 51.8684 59.2998 51.5791 59.2998 51.1793V48.6229C58.9631 48.7807 58.5633 48.9175 58.1005 49.0332C57.6376 49.1384 57.1642 49.191 56.6802 49.191C55.807 49.191 55.1232 49.0069 54.6288 48.6387C54.3447 48.4178 54.1449 48.1548 54.0291 47.8497C53.9239 47.5341 53.8713 47.0922 53.8713 46.5241V44.7252C53.8713 44.2939 53.7819 43.9993 53.6031 43.8415C53.4242 43.6732 53.1139 43.589 52.672 43.589V43.2576C53.6399 43.2997 54.2869 43.3207 54.613 43.3207C54.9076 43.3207 55.4967 43.2997 56.3804 43.2576V43.589C55.9911 43.589 55.7176 43.6732 55.5598 43.8415C55.4125 43.9993 55.3389 44.2939 55.3389 44.7252V46.8713C55.3389 47.2921 55.381 47.6288 55.4651 47.8812C55.5598 48.1337 55.7492 48.3336 56.0332 48.4809C56.3173 48.6177 56.7381 48.686 57.2957 48.686C58.0636 48.686 58.7317 48.5703 59.2998 48.3389V44.9303C59.2998 44.5306 59.2682 44.2413 59.2051 44.0624C59.142 43.8836 59.021 43.7626 58.8421 43.6995C58.6738 43.6363 58.4003 43.5943 58.0216 43.5732V43.2576C58.4634 43.2892 59.1262 43.305 60.0099 43.305C60.8831 43.305 61.5616 43.2892 62.0455 43.2576V43.5732Z" fill="white"/>
<path d="M72.1357 43.2576C72.0621 43.9519 72.0252 44.5726 72.0252 45.1197C72.0252 45.6667 72.041 46.0981 72.0726 46.4137H71.7096C71.6465 45.6773 71.5466 45.1144 71.4098 44.7252C71.273 44.3359 71.0521 44.0572 70.747 43.8888C70.4419 43.71 70.0054 43.6206 69.4373 43.6206H68.4273V51.0215C68.4273 51.4634 68.4694 51.7843 68.5536 51.9841C68.6377 52.184 68.785 52.3208 68.9954 52.3944C69.2058 52.4681 69.5477 52.5154 70.0211 52.5364V52.8521C69.4741 52.8205 68.7008 52.8047 67.7014 52.8047C66.6494 52.8047 65.8709 52.8205 65.3659 52.8521V52.5364C65.8393 52.5154 66.1813 52.4681 66.3917 52.3944C66.6021 52.3208 66.7493 52.184 66.8335 51.9841C66.9177 51.7843 66.9597 51.4634 66.9597 51.0215V43.6206H65.9498C65.3817 43.6206 64.9451 43.71 64.64 43.8888C64.335 44.0572 64.114 44.3359 63.9773 44.7252C63.8405 45.1144 63.7406 45.6773 63.6774 46.4137H63.3145C63.3461 46.077 63.3618 45.6457 63.3618 45.1197C63.3618 44.5726 63.325 43.9519 63.2514 43.2576C64.1246 43.2892 65.6079 43.305 67.7014 43.305C69.7844 43.305 71.2625 43.2892 72.1357 43.2576Z" fill="white"/>
<path d="M80.6403 51.5265C80.9244 52.1788 81.2873 52.5154 81.7291 52.5364V52.8521C81.3083 52.8205 80.7455 52.8047 80.0406 52.8047C79.1359 52.8047 78.4626 52.8205 78.0208 52.8521V52.5364C78.41 52.5154 78.6941 52.4628 78.8729 52.3786C79.0623 52.2945 79.157 52.1525 79.157 51.9526C79.157 51.7842 79.0833 51.537 78.936 51.2109L78.1312 49.4119H74.2966L73.7601 50.5955C73.5812 51.0058 73.4918 51.3424 73.4918 51.6054C73.4918 51.8789 73.5865 52.0946 73.7759 52.2524C73.9757 52.3997 74.2914 52.4944 74.7227 52.5364V52.8521C74.4071 52.8205 73.9284 52.8047 73.2867 52.8047C72.6449 52.8047 72.1873 52.8205 71.9138 52.8521V52.5364C72.1978 52.4628 72.4398 52.305 72.6397 52.063C72.8396 51.8105 73.0289 51.4792 73.2078 51.0689L76.6952 43.1787H76.9477L80.6403 51.5265ZM78.005 49.0963L76.2218 45.0881L74.4229 49.0963H78.005Z" fill="white"/>
</svg>
